<svg id="Capa_1" enable-background="new 0 0 512 512" height="512" viewBox="0 0 512 512" width="512" xmlns="http://www.w3.org/2000/svg"><g><path d="m352.382 356.473h30v81.214h-30z" fill="#addcff" transform="matrix(.924 -.383 .383 .924 -123.991 170.817)"/><path d="m265.331 346.69 5.74 13.858c17.316-7.172 37.07-5.216 52.643 5.213l20.011 13.401 27.716-11.48 4.674-23.625c3.637-18.386 16.223-33.738 33.538-40.91l-5.74-13.858s-27.216 27.506-63.551 42.559-75.031 14.842-75.031 14.842z" fill="#85c4ff"/><path d="m373.667 39.88 69.648 168.146-61.377 106.603 27.716-11.48c53.576-22.192 79.017-83.613 56.826-137.189l-43.817-105.785c-7.926-19.134-29.863-28.221-48.996-20.295z" fill="#addcff"/><path d="m203.174 275.024-43.817-105.784c-7.925-19.134-29.863-28.22-48.996-20.295l58.168 140.43c11.094 26.783 31.999 46.548 56.824 56.831s49.185 12.911 87.295-2.875l27.716-11.48c-53.576 22.19-114.998-3.252-137.19-56.827z" fill="#addcff"/><path d="m394.946 71.655 43.817 105.784c22.192 53.576-3.25 114.997-56.826 137.189l-41.575 17.221c53.576-22.192 79.017-83.613 56.826-137.189l-43.816-105.784c-7.925-19.134 1.161-41.071 20.295-48.996 3.824-1.585 13.354 12.642 21.279 31.775z" fill="#cfe9ff"/><path d="m312.647 343.33-41.575 17.221c-53.576 22.192-114.997-3.25-137.189-56.826l-43.817-105.784c-7.925-19.134 1.161-41.071 20.295-48.996 3.825-1.584 13.354 12.642 21.28 31.775l43.817 105.784c11.094 26.783 31.999 46.548 56.824 56.831 24.824 10.282 53.582 11.089 80.365-.005z" fill="#cfe9ff"/><path d="m227.662 59.765 112.7 272.083c38.268-15.851 56.441-59.724 40.59-97.992l-55.298-133.501c-15.851-38.269-59.724-56.442-97.992-40.59z" fill="#addcff"/><path d="m353.235 245.335-55.298-133.501c-15.851-38.268-47.315-61.581-70.276-52.07-38.268 15.851-56.441 59.724-40.59 97.992l55.298 133.501c15.851 38.268 59.724 56.441 97.992 40.59 22.962-9.511 28.726-48.243 12.874-86.512z" fill="#cfe9ff"/><path d="m444.5 414.999-60 45h90v-45z" fill="#ffd24c"/><path d="m37.5 414.999h407v45h-407z" fill="#ffe375"/><path d="m474.5 444.999h-30l30 30h30c0-16.568-13.432-30-30-30z" fill="#fff0b2"/><path d="m444.5 444.999h-407c-16.569 0-30 13.431-30 30h467c0-16.568-13.432-30-30-30z" fill="#fff8db"/><path d="m482 438.254v-23.255c0-4.142-3.357-7.5-7.5-7.5h-78.448l-16.814-40.59 4.233-21.397c3.154-15.939 13.988-29.17 28.988-35.408l.065-.027c27.763-11.5 49.386-33.122 60.885-60.885 11.499-27.762 11.499-58.341-.001-86.104l-43.816-105.783c-4.6-11.105-13.249-19.754-24.354-24.354-11.106-4.6-23.337-4.6-34.441 0-11.105 4.6-19.754 13.249-24.354 24.354-4.6 11.104-4.6 23.336.001 34.441l43.817 105.784c8.638 20.856 9.473 43.029 3.861 63.26-.202-9.965-2.202-20.054-6.24-29.803l-55.298-133.5c-8.433-20.359-24.289-36.216-44.647-44.649-20.361-8.433-42.785-8.432-63.143 0-42.028 17.408-62.057 65.763-44.649 107.792l55.298 133.5c4.043 9.762 9.761 18.331 16.676 25.525-18.878-10.649-33.589-27.162-42.014-47.501l-43.817-105.784c-9.496-22.924-35.872-33.85-58.795-24.354-22.924 9.496-33.85 35.871-24.354 58.795l43.817 105.784c11.5 27.762 33.122 49.385 60.885 60.885 13.881 5.75 28.466 8.625 43.051 8.625s29.171-2.875 43.052-8.625l.065-.027c15.017-6.196 32.033-4.501 45.534 4.54l18.124 12.138 13.976 33.739c1.16 2.803 3.896 4.63 6.929 4.63h108.428v15h-422v-15h281.098c4.143 0 7.5-3.358 7.5-7.5s-3.357-7.5-7.5-7.5h-288.598c-4.142 0-7.5 3.358-7.5 7.5v23.255c-17.096 3.484-30 18.635-30 36.745 0 4.142 3.358 7.5 7.5 7.5h497c4.143 0 7.5-3.358 7.5-7.5 0-18.111-12.904-33.262-30-36.746zm-77.882-246.464-43.817-105.784c-3.066-7.403-3.066-15.558 0-22.961s8.833-13.169 16.236-16.235c3.702-1.534 7.591-2.3 11.48-2.3s7.779.767 11.48 2.3c7.403 3.066 13.169 8.833 16.236 16.236l43.816 105.784c9.966 24.061 9.967 50.563 0 74.623-9.966 24.061-28.706 42.8-52.767 52.767-.044.016-.087.036-.13.054l-17.348 7.186c23.685-30.871 30.744-73.213 14.814-111.67zm-210.115-36.901c-14.243-34.387 2.145-73.95 36.531-88.193 8.329-3.45 17.08-5.175 25.831-5.175s17.502 1.725 25.832 5.175c16.657 6.9 29.631 19.873 36.53 36.531l55.298 133.5c14.239 34.377-2.136 73.927-36.502 88.181-34.435 14.248-73.983-2.141-88.221-36.518zm-.423 198.732c-24.061-9.966-42.8-28.706-52.767-52.767l-43.817-105.784c-6.331-15.283.953-32.866 16.236-39.197 3.742-1.55 7.622-2.284 11.441-2.284 11.777 0 22.975 6.979 27.755 18.52l43.817 105.784c11.5 27.762 33.122 49.385 60.884 60.885 9.231 3.824 18.773 6.376 28.421 7.657l-17.219 7.132c-.043.018-.087.034-.13.052-24.058 9.969-50.56 9.969-74.621.002zm134.308 5.909c-5.03-3.369-10.434-5.956-16.043-7.75l31.33-12.978c.073-.03 31.446-13.025 31.446-13.025-2.698 5.235-4.689 10.885-5.864 16.823l-3.896 19.691-20.296 8.407zm25.637 23.694 13.858-5.74 12.434 30.016h-16.236zm-337.24 84.275c3.095-8.73 11.437-15 21.215-15h437c9.778 0 18.119 6.27 21.215 15z"/></g></svg>