<svg id="Filled" height="512" viewBox="0 0 512 512" width="512" xmlns="http://www.w3.org/2000/svg"><path d="m56 208h-32l32 112h96v-16a96 96 0 0 0 -96-96z" fill="#b6b9ba"/><path d="m416 144h-16a128 128 0 0 0 -128 128v48h112z" fill="#d0d2d4"/><path d="m88 144h16a128 128 0 0 1 128 128v48h-112z" fill="#d0d2d4"/><path d="m472 240h16l-16 112h-96v-16a96 96 0 0 1 96-96z" fill="#b6b9ba"/><path d="m192 96h-16l32 224h144v-64a160 160 0 0 0 -160-160z" fill="#e1e3e6"/><path d="m472 352-40-32h-192l-56-48h-24-32l-24 16h-48v96h416z" fill="#e0b999"/><path d="m24 384h464v32h-464z" fill="#c2a186"/><path d="m72 320h-32v64h96z" fill="#f7cca9"/><path d="m368 320h-128l64-80z" fill="#e9eef2"/><path d="m312 250v70h-16v-70l8-10z" fill="#d0d2d4"/><g fill="#734b39"><path d="m312 352h32v32h-32z"/><path d="m232 352h32v32h-32z"/><circle cx="200" cy="336" r="8"/><circle cx="376" cy="352" r="8"/><circle cx="408" cy="352" r="8"/><circle cx="168" cy="336" r="8"/></g><path d="m488 376h-8v-23.429l15.92-111.44a8 8 0 0 0 -7.92-9.131h-16a103.341 103.341 0 0 0 -68.545 25.712l20.416-112.281a8 8 0 0 0 -7.871-9.431h-16a134.977 134.977 0 0 0 -72.373 20.871 167.648 167.648 0 0 0 -135.627-68.871h-16a8 8 0 0 0 -7.92 9.131l8.556 59.9a136.088 136.088 0 0 0 -72.636-21.031h-16a8 8 0 0 0 -7.871 9.431l11.032 60.681a104.463 104.463 0 0 0 -35.161-6.112h-32a8 8 0 0 0 -7.692 10.2l29.086 101.8h-5.394a8 8 0 0 0 -8 8v56h-8a8 8 0 0 0 -8 8v32a8 8 0 0 0 8 8h464a8 8 0 0 0 8-8v-32a8 8 0 0 0 -8-8zm-136 0v-24a8 8 0 0 0 -8-8h-32a8 8 0 0 0 -8 8v24h-32v-24a8 8 0 0 0 -8-8h-32a8 8 0 0 0 -8 8v24h-84.686l-61.657-61.657a8 8 0 0 0 -5.657-2.343h-8v-16h40a7.992 7.992 0 0 0 4.437-1.344l21.985-14.656h50.619l53.753 46.074a8 8 0 0 0 5.206 1.926h189.193l34.807 27.845v20.155zm-16 0h-16v-16h16zm-80 0h-16v-16h16zm88-64h-32v-49.194l32 40zm-48 0h-39.355l39.355-49.194zm176-64h6.776l-12.715 89-29.061-23.247a8 8 0 0 0 -5-1.753h-44.67a87.974 87.974 0 0 1 84.67-64zm-65.586-96-23.784 130.8a102.474 102.474 0 0 0 -11.594 28.186l-11.036-13.792v-41.194a167.276 167.276 0 0 0 -23.55-85.78 119.08 119.08 0 0 1 63.55-18.22zm-214.414-48a151.959 151.959 0 0 1 152 152v21.194l-33.753-42.194a8 8 0 0 0 -12.494 0l-58.83 73.538-27.9-23.913-25.799-180.625zm-88 48a120.039 120.039 0 0 1 75.766 26.946l12.84 89.894-3.4-2.914a8 8 0 0 0 -5.206-1.926h-56a8 8 0 0 0 -4.438 1.344l-4.789 3.193-21.187-116.537zm-48 64a88.263 88.263 0 0 1 38.575 8.889l9.693 53.318-2.69 1.793h-45.578a7.964 7.964 0 0 0 -2.946.567l-18.454-64.567zm-8 112h20.686l48 48h-68.686zm432 80h-448v-16h448z"/><circle cx="200" cy="336" r="8"/><circle cx="376" cy="352" r="8"/><circle cx="408" cy="352" r="8"/><circle cx="168" cy="336" r="8"/></svg>