<svg id="Layer_5" enable-background="new 0 0 64 64" height="512" viewBox="0 0 64 64" width="512" xmlns="http://www.w3.org/2000/svg"><g><g><g><path d="m14.4 40 3.6 6h-16l4.97-8.29c.64-1.06 1.79-1.71 3.03-1.71s2.39.65 3.03 1.71z" fill="#b4dd7f"/></g><g><path d="m22 40v6h-4l-3.6-6 2.57-4.29c.64-1.06 1.79-1.71 3.03-1.71.73 0 1.42.22 2 .62z" fill="#a0d468"/></g><g><path d="m47.03 35.71 2.57 4.29-3.6 6h-2v-12c1.24 0 2.39.65 3.03 1.71z" fill="#a0d468"/></g><g><path d="m57.03 37.71 4.97 8.29h-16l3.6-6 1.37-2.29c.64-1.06 1.79-1.71 3.03-1.71s2.39.65 3.03 1.71z" fill="#b4dd7f"/></g><g><path d="m30 43.28v10.72h-4v-11.53c1.19.3 2.57.55 4 .81z" fill="#ccd1d9"/></g><g><path d="m38 44.92v9.08h-4v-10.01c1.44.27 2.81.57 4 .93z" fill="#ccd1d9"/></g><g><path d="m26 42.47v11.53h-2-2v-8-6c0 1.15 1.65 1.89 4 2.47z" fill="#aab2bd"/></g><g><path d="m34 43.99v10.01h-2-2v-10.72c1.32.23 2.68.46 4 .71z" fill="#aab2bd"/></g><g><path d="m42 48v6h-2-2v-9.08c.31.09.59.18.87.28l.07-.01c.04.2.06.4.06.61v2.2z" fill="#aab2bd"/></g><g><path d="m62 58v4h-7v-4h3z" fill="#b27946"/></g><g><path d="m58 54h4v4h-4z" fill="#d3a06c"/></g><g><path d="m62 50v4h-4-3v-4z" fill="#d3a06c"/></g><g><path d="m60 23v2c0 .55-.45 1-1 1h-5.54c.34-.59.54-1.27.54-2v-2h5c.55 0 1 .45 1 1z" fill="#aab2bd"/></g><g><path d="m58 54v4h-3-3v-4h3z" fill="#b27946"/></g><g><path d="m55 58v4h-7v-4h4z" fill="#d3a06c"/></g><g><path d="m55 50v4h-3-4v-4z" fill="#b27946"/></g><g><path d="m54 22v2c0 .73-.2 1.41-.54 2-.69 1.2-1.98 2-3.46 2h-6v-5c0-.36-.1-.71-.27-1z" fill="#e6e9ed"/></g><g><path d="m48 54h4v4h-4z" fill="#d3a06c"/></g><g><path d="m44 58v4h-8v-4h4z" fill="#d3a06c"/></g><g><path d="m44 54v4h-4v-4h2z" fill="#d3a06c"/></g><g><path d="m36 31.8v-4.14-4.66c0-.36.1-.71.27-1 .35-.6.99-1 1.73-1h2 2c.74 0 1.38.4 1.73 1 .17.29.27.64.27 1v5 6 12 2h-2-3v-2.2c0-.21-.02-.41-.06-.61-.16-.89-.67-1.68-1.44-2.19-.94-.62-1.5-1.68-1.5-2.8z" fill="#ccd1d9"/></g><g><path d="m40 54v4h-4-4v-4h2 4z" fill="#b27946"/></g><g><path d="m40 10v11h-2c-.74 0-1.38.4-1.73 1h-.27c-1.1 0-2-.9-2-2v-1.41-.01c.58-.25 1.1-.6 1.54-1.04.9-.91 1.46-2.16 1.46-3.54v-2c0-1.1-.9-2-2-2h-6c-1.1 0-2 .9-2 2v2c0 2.05 1.24 3.81 3 4.58v.01 1.41c0 1.1-.9 2-2 2h-4v-12c0-4.42 3.58-8 8-8 2.21 0 4.21.9 5.66 2.34 1.44 1.45 2.34 3.45 2.34 5.66z" fill="#aab2bd"/></g><g><path d="m38.94 45.19-.07.01c-.28-.1-.56-.19-.87-.28-1.19-.36-2.56-.66-4-.93-1.32-.25-2.68-.48-4-.71-1.43-.26-2.81-.51-4-.81-2.35-.58-4-1.32-4-2.47v-5.38-4.62c1.67 1.25 3.75 2 6 2h6c.68 0 1.35-.07 2-.2v8.4c0 1.12.56 2.18 1.5 2.8.77.51 1.28 1.3 1.44 2.19z" fill="#e6e9ed"/></g><g><path d="m37 12v2c0 1.38-.56 2.63-1.46 3.54-.44.44-.96.79-1.54 1.04v.01c-.61.26-1.29.41-2 .41s-1.39-.15-2-.41v-.01c-1.76-.77-3-2.53-3-4.58v-2c0-1.1.9-2 2-2h6c1.1 0 2 .9 2 2z" fill="#e6e9ed"/></g><g><path d="m36 22h.27c-.17.29-.27.64-.27 1v4.66c-.62.22-1.3.34-2 .34h-6c-3.31 0-6-2.69-6-6h2 4c1.1 0 2-.9 2-2v-1.41c.61.26 1.29.41 2 .41s1.39-.15 2-.41v1.41c0 1.1.9 2 2 2z" fill="#e6e9ed"/></g><g><path d="m36 58v4h-8v-4h4z" fill="#b27946"/></g><g><path d="m36 27.66v4.14c-.65.13-1.32.2-2 .2h-6c-2.25 0-4.33-.75-6-2-.76-.57-1.43-1.24-2-2-1.25-1.67-2-3.75-2-6h4c0 3.31 2.69 6 6 6h6c.7 0 1.38-.12 2-.34z" fill="#ccd1d9"/></g><g><path d="m32 54v4h-4-4v-4h2 4z" fill="#d3a06c"/></g><g><path d="m28 58v4h-8v-4h4z" fill="#d3a06c"/></g><g><path d="m24 54v4h-4v-4h2z" fill="#b27946"/></g><g><path d="m20 28h-6c-1.48 0-2.77-.8-3.46-2-.34-.59-.54-1.27-.54-2v-2h8c0 2.25.75 4.33 2 6z" fill="#e6e9ed"/></g><g><path d="m16 58v4h-7v-4h3z" fill="#b27946"/></g><g><path d="m12 54h4v4h-4z" fill="#d3a06c"/></g><g><path d="m16 50v4h-4-3v-4z" fill="#d3a06c"/></g><g><path d="m12 54v4h-3-3v-4h3z" fill="#b27946"/></g><g><path d="m10.54 26h-5.54c-.55 0-1-.45-1-1v-2c0-.55.45-1 1-1h5v2c0 .73.2 1.41.54 2z" fill="#aab2bd"/></g><g><path d="m9 58v4h-7v-4h4z" fill="#d3a06c"/></g><g><path d="m9 50v4h-3-4v-4z" fill="#b27946"/></g><g><path d="m2 54h4v4h-4z" fill="#d3a06c"/></g></g><g><path d="m45 49v-2h18.768l-5.879-9.8c-.815-1.357-2.304-2.2-3.887-2.2s-3.072.843-3.886 2.2l-.514.856-1.713-2.856c-.64-1.066-1.698-1.807-2.889-2.08v-4.12h5c1.627 0 3.061-.793 3.974-2h5.026c1.103 0 2-.897 2-2v-2c0-1.103-.897-2-2-2h-4-1-9.78c-.549-.609-1.337-1-2.22-1h-1v-10c0-4.963-4.038-9-9-9s-9 4.037-9 9v11h-13-1-4c-1.103 0-2 .897-2 2v2c0 1.103.897 2 2 2h5.026c.914 1.207 2.348 2 3.974 2h5.521c.445.538.94 1.033 1.479 1.479v2.646c-.327-.075-.659-.125-1-.125-1.583 0-3.072.843-3.886 2.2l-1.714 2.856-.514-.856c-.814-1.357-2.303-2.2-3.886-2.2s-3.072.843-3.886 2.2l-5.88 9.8h20.766v6h-2v10h26v-10h-2v-4zm6.831-10.771c.455-.758 1.287-1.229 2.171-1.229s1.716.471 2.172 1.229l4.062 6.771h-12.468zm-5.657-2 2.262 3.771-3 5h-.436v-9.772c.478.208.899.543 1.174 1.001zm12.826-13.229v2h-4.101c.066-.323.101-.658.101-1v-1zm-6 0v1c0 1.654-1.346 3-3 3h-5v-4zm-10 0v24h-3v-1.197c0-1.464-.727-2.822-1.945-3.635-.66-.44-1.055-1.177-1.055-1.971v-17.197c0-.552.449-1 1-1h4c.551 0 1 .448 1 1zm-10 34v-2h6v2zm-4-12.887v8.887h-2v-9.275c.634.134 1.303.262 2 .388zm2 8.887v-8.534c.666.115 1.337.232 2 .353v8.181zm0 2v2h-6v-2zm4 4v2h-6v-2zm0-6v-7.795c.699.146 1.37.302 2 .469v7.326zm-10-43c0-3.859 3.14-7 7-7s7 3.141 7 7v10h-1c-.865 0-1.64.374-2.188.962-.459-.091-.812-.477-.812-.962v-.812c1.79-1.039 3-2.973 3-5.188v-2c0-1.654-1.346-3-3-3h-6c-1.654 0-3 1.346-3 3v2c0 2.215 1.21 4.149 3 5.188v.812c0 .552-.449 1-1 1h-3zm7 8c-2.206 0-4-1.794-4-4v-2c0-.552.449-1 1-1h6c.551 0 1 .448 1 1v2c0 2.206-1.794 4-4 4zm-1 2v-.09c.326.055.659.09 1 .09s.674-.035 1-.09v.09c0 1.309.847 2.412 2.018 2.821-.004.061-.018.118-.018.179v3.889c-.328.067-.66.111-1 .111h-6c-2.414 0-4.434-1.721-4.899-4h4.899c1.654 0 3-1.346 3-3zm-26 5v-2h4v1c0 .342.035.677.101 1zm9 2c-1.654 0-3-1.346-3-3v-1h6.051c.13 1.43.537 2.779 1.164 4zm5.059-4h2.021c.488 3.386 3.401 6 6.92 6h6c.338 0 .67-.037 1-.085v2.026c-.332.037-.666.059-1 .059h-6c-4.624 0-8.442-3.507-8.941-8zm8.941 10h6c.334 0 .668-.02 1-.05v7.248c0 1.273.551 2.466 1.496 3.29-1.623-.379-3.41-.689-5.16-.993-2.913-.507-8.336-1.448-8.336-2.495v-8.214c1.502.77 3.199 1.214 5 1.214zm-24.234 12 4.063-6.771c.455-.758 1.287-1.229 2.171-1.229s1.716.471 2.171 1.229l4.063 6.771zm14.8 0-3-5 2.262-3.77c.456-.759 1.288-1.23 2.172-1.23.348 0 .685.076 1 .212v9.788zm4.434-2.492c.568.275 1.241.515 2 .73v9.762h-2zm0 12.492v2h-2v-2zm-2 4h6v2h-6zm16 2v-2h6v2zm6-4h-2v-2h2zm-2-4h-2v-4h2z"/><path d="m39 24h2v2h-2z"/><path d="m39 28h2v2h-2z"/><path d="m39 32h2v2h-2z"/><path d="m47 63h16v-14h-16zm2-4h5v2h-5zm8-4v2h-4v-2zm4 0v2h-2v-2zm-10 2h-2v-2h2zm5 4v-2h5v2zm5-8h-5v-2h5zm-7-2v2h-5v-2z"/><path d="m1 63h16v-14h-16zm2-4h5v2h-5zm8-4v2h-4v-2zm4 0v2h-2v-2zm-10 2h-2v-2h2zm5 4v-2h5v2zm5-8h-5v-2h5zm-7-2v2h-5v-2z"/></g></g></svg>