<svg id="Capa_1" enable-background="new 0 0 512 512" height="512" viewBox="0 0 512 512" width="512" xmlns="http://www.w3.org/2000/svg"><g><g><path d="m120.872 87.3c0-32.046 25.016-41.038 35.697-41.518 1.549-.07 2.601 1.579 1.852 2.936-1.017 1.844-1.069 4.801-1.069 4.801-2.561 9.996-.232 22.935 13.148 28.139l4.667 1.348-23.965 20.725-30.197-11.265z" fill="#ffbf54"/><path d="m134.468 71.902c5.584-10.101 14.914-15.662 22.884-18.383.58-2.27 1.418-4.401 2.438-6.241.75-1.36-.31-3.01-1.85-2.94-10.68.48-38.44 9.27-38.44 41.32l.13 5.16 31.57 12.91 12.31-10.64c-6.019-8.665-15.169-15.406-27.721-18.284-1.289-.295-1.961-1.744-1.321-2.902z" fill="#ffa442"/><path d="m243.349 252.488v-35.444c0-12.457 6.694-22.556 19.151-22.556 12.457 0 22.556 10.098 22.556 22.556v20.444l-2.019 7.353 2.019 7.647z" fill="#ffbf54"/><path d="m285.06 237.488v15h-45.12v-35.44c0-9.81 6.26-18.15 15-21.26v36.7c0 2.761 2.239 5 5 5z" fill="#ffa442"/><circle cx="262.5" cy="178.047" fill="#e3a76f" r="23.482"/><path d="m333.348 252.488v-35.444c0-12.457 6.694-22.556 19.151-22.556 12.457 0 22.556 10.098 22.556 22.556v20.444l-2.019 7.353 2.019 7.647z" fill="#95d6a4"/><path d="m375.059 237.488v15h-45.12v-35.44c0-9.81 6.26-18.15 15-21.26v36.7c0 2.761 2.239 5 5 5z" fill="#78c2a4"/><circle cx="352.499" cy="178.047" fill="#e3a76f" r="23.482"/><path d="m423.346 252.488v-35.444c0-12.457 6.694-22.556 19.151-22.556 12.457 0 22.556 10.098 22.556 22.556v20.444l-2.019 7.353 2.019 7.647z" fill="#d82f3c"/><path d="m465.058 237.488v15h-45.12v-35.44c0-9.81 6.26-18.15 15-21.26v36.7c0 2.761 2.239 5 5 5z" fill="#c42430"/><circle cx="442.498" cy="178.557" fill="#e3a76f" r="22.973"/><path d="m111.04 365.548-14.54-.43-34.693-29.88c-5.13-5.22-9.31-11.48-12.8-18.27-3.48-6.78-6.28-14.08-8.62-21.38-9.19-28.57-7.532-59.8 9.668-84.4l9.11-12.7 31.785-.09-6.95 18.09c-32 48-9.18 83.52 17 127.75z" fill="#faf2f3"/><path d="m504.5 238.008v41.32c0 11.58-1.43 21.76-4.54 30.85s-7.9 17.11-14.6 24.37c-.768.893-1.554 1.768-2.357 2.623 0 0-8.293 4.012-12.122 6.836l-44.961 30.942-314.88-9.4-14.54-21.31c-26.18-44.23-49-79.75-17-127.75l11.45-18.09 52.23-.15c-5.52 26.84 14.99 51.99 42.4 51.99h246.97c22.61 0 44.8-5.73 64.52-16.59 3.34-1.841 7.43.549 7.43 4.359z" fill="#d82f3c"/><path d="m100.339 343.209c-4.67-7.89-17.229-21.92-17.229-21.92-5.318-1.092-9.733-1.787-16.48-1.457-2.05.1-3.979-1.002-4.912-2.83-3.172-6.212-6.429-14.428-8.638-21.413-9.19-28.57-4.49-59.8 12.71-84.4l9.71-12.7-11.931-5.995-5.069 5.995-9.71 12.7c-17.2 24.6-21.9 55.83-12.71 84.4 2.34 7.3 5.14 14.6 8.62 21.38 3.49 6.79 8.647 14.607 13.777 19.827l38.023 28.322 14.54.43z" fill="#f0e5e0"/><path d="m51.541 167.238c.089 4.536 1.349 9.944 3.138 16 9.778 33.111 34.408 36.377 43.789 38.319 1.205.249 2.359-.639 2.395-1.869.047-1.618.753-2.877 1.575-5.507.483-1.543 1.15-3.21 2.062-4.942 3.14-5.962 8.962-7.708 10-8l-39.702-54.544z" fill="#c42430"/><path d="m69.225 182.235 31.435-.007-25.86-35.53-25.3 20.54c.09 4.54 1.21 9.94 3 16 9.78 33.11 37.01 37.39 46.39 39.33 1.2.25 2.36-.64 2.39-1.87.05-1.62.338-3.888 1.158-6.518-10.329-2.554-26.473-8.636-35.909-27.62-.988-1.986.477-4.324 2.696-4.325z" fill="#a81f2a"/><path d="m186.5 102.238c3.767 1.999 8.015 4.864 12 9 12.068 12.525 13.932 28.619 14.065 36.929.026 1.603-1.751 2.603-3.086 1.716-3.749-2.491-10.655-5.768-18.979-3.644-8.554 2.182-14.195 7.294-16.023 16.102l-36.403-9.426 5.45-36.826z" fill="#c42430"/><path d="m172.5 123.238c0 12.62-3.21 25.6-9.43 36.15l-25-6.47 5.45-36.83 26.77-8.63c1.49 5.11 2.21 10.45 2.21 15.78z" fill="#a81f2a"/><path d="m89.358 167.238c-.287 4.493-.901 13.615 6.44 22.089 8.876 10.245 22.117 12.545 30.279 12.092 1.4-.078 3.582-.097 3.582-.097.306-.03.587-.059.841-.085 19.003-1.937 22.358-11.794 36-10 11.229 1.476 20.272 8.034 24.814 11.973 1.309 1.136 3.333.205 3.319-1.529-.047-6.075-.938-16.934-6.133-24.445-5.799-8.383-12.047-14.433-19-18-1.683-.863-3.429-1.534-5.181-2.067 0 0-13.647-1.728-17.35-2.606z" fill="#ffbf54"/><path d="m144.027 95.236c7.275-1.936 19.032-5.575 31.293-15.312 9.344-7.42 15.144-17.001 19.066-23.986.923-1.643 3.394-1.22 3.713.637.471 2.738 1.557 8.014 1.557 8.014.187 7.079-.67 15.567-4.156 23.65-10.381 24.071-35.46 32.405-38.338 33.081z" fill="#faf2f3"/><path d="m164.319 157.171c-6.03-1.84-12.628-2.137-16.338-3.017l-46.624 10.74c-.006-.2-.014-.411-.018-.605l-13.84 2.95c-.29 4.49-.34 15.53 7 24 10.4 12 28.585 10.724 35.165 10.084-7.25-.86-15.405-3.434-21.165-10.084-1.496-1.727-2.685-3.887-3.631-6.268-.523-1.315.446-2.746 1.86-2.747l18.771-.006c17.981 0 31.09-10.537 38.82-25.047z" fill="#ffa442"/><path d="m198.66 54.498c-.31-1.85-2.79-2.28-3.71-.63-3.92 6.98-10.11 16.95-19.45 24.37-12.26 9.74-24.7 14.06-31.98 16l5.79 11.5c.002 0 .004-.001.005-.002l7.844 15.582c1.34-.31 7.47-2.28 14.7-6.71-.751-4.991-2.174-9.868-4.289-14.422-.418-.899-.089-1.957.774-2.444 3.633-2.053 7.402-4.524 11.155-7.504 9.93-7.88 16.286-18.65 20.156-25.65-.109-3.889-.525-7.35-.995-10.09z" fill="#f0e5e0"/><path d="m157.5 123.238c0 19-10 43.98-32 43.98l-87.5.02c-7.46 0-13.5-6.04-13.5-13.5 0-1.775.342-3.47.965-5.022 0 0 4.761-4.11 6.59-5.558.12-.07.23-.16.32-.26.33-.34.53-.79.53-1.3 0-.75-.3-1.469-1.1-1.68-4.077-.704-15.403-6.191-15.403-6.191-.364-.318-.717-.647-1.055-.986-5.25-5.261-7.798-12.381-7.847-18.503 0-15 8.2-21.3 17.12-22.36 9.4-1.11 17.66 4.47 20.66 12.6.92 2.5 3.72 3.57 6.21 2.6 1.4-.54 2.92-.84 4.51-.84 3.23 0 6.17 1.22 8.38 3.23 1.75 1.58 4.49 1.58 6.24 0 2.21-2.01 5.15-3.23 8.38-3.23 3.9 0 7.38 1.79 9.67 4.6l32.26-22.54c.24-.01.49-.02.74-.02 28.83 0 35.83 20.96 35.83 34.96z" fill="#d82f3c"/><g><path d="m126.953 102.738c0-11.046-8.954-20-20-20-3.117 0-6.068.713-8.698 1.985 0 0-2.014 1.88-3.159 2.787-4.62 3.663-7.025 8.873-7.025 15.227 0 11.046 7.836 18.603 18.882 18.603 7.268 0 13.224-2.906 16.726-8.704.614-1.016 1.973-2.789 1.973-2.789.841-2.209 1.301-4.605 1.301-7.109z" fill="#faf2f3"/><path d="m125.653 109.847c-2.873 7.536-10.163 12.891-18.7 12.891-8.735 0-16.163-5.601-18.888-13.407l1.712-6.593-1.551-7.04c1.811-4.818 5.429-8.75 10.029-10.975-.836 2.209-1.302 4.605-1.302 7.105 0 11.045 8.955 20 20 20 3.119.001 6.073-.708 8.7-1.981z" fill="#f0e5e0"/></g><g fill="#c42430"><circle cx="166" cy="293.426" r="15"/><circle cx="256" cy="293.488" r="15"/><circle cx="346.493" cy="293.488" r="15"/><circle cx="440.915" cy="293.488" r="15"/><path d="m483.003 337.171c-3.3 3.52-6.893 6.707-10.723 9.527l-46.36 28.25-314.88-9.4-14.54-21.31c-4.67-7.89-9.23-15.5-13.39-22.95 13.03 3.15 21.24 10.54 27.63 16.31 7.01 6.32 11.25 10.14 21.02 10.14s14-3.82 21.02-10.14c8.36-7.54 19.81-17.86 41.1-17.86 21.3 0 32.75 10.32 41.11 17.86 7.02 6.32 11.25 10.14 21.02 10.14s14-3.82 21.02-10.14c8.36-7.54 19.81-17.86 41.1-17.86s32.74 10.32 41.1 17.86c7.02 6.32 11.26 10.14 21.02 10.14 9.77 0 14.01-3.82 21.02-10.14 8.36-7.54 19.81-17.86 41.11-17.86 20.89 0 32.303 9.933 40.623 17.433z"/></g><path d="m10.266 426.441h487.651l6.583-13.702v-46.156c0-2.096-1.623-3.822-3.713-3.985-27.402-2.136-28.638-27.859-58.409-27.859-31.062 0-31.062 28-62.125 28-31.062 0-31.062-28-62.124-28-31.061 0-31.061 28-62.121 28-31.062 0-31.062-28-62.124-28-31.063 0-31.063 28-62.126 28-31.065 0-31.065-28-62.129-28-24.559 0-29.702 17.501-46.13 24.831-3.489 1.557-6.041 5.255-10.841 5.629-2.09.163-3.713 1.889-3.713 3.985z" fill="#8fc2ff"/><path d="m8.945 459.002c0 1.138.954 2.051 2.092 2.003 5.534-.234 12.466-1.438 12.466-1.438 16.424-7.331 21.568-24.829 46.126-24.829 31.064 0 31.064 28 62.129 28 31.063 0 31.063-28 62.126-28 31.062 0 31.062 28 62.124 28 31.061 0 31.061-28 62.121-28 31.062 0 31.062 28 62.124 28s31.062-28 62.125-28c30.348 0 31.045 26.729 60.03 27.956 1.137.048 2.092-.865 2.092-2.003v-47.953c-31.061 0-31.061-28-62.122-28-31.062 0-31.062 28-62.125 28-31.062 0-31.062-28-62.124-28-31.061 0-31.061 28-62.121 28-31.062 0-31.062-28-62.124-28-31.063 0-31.063 28-62.126 28-31.065 0-31.065-28-62.129-28s-31.064 28-62.129 28z" fill="#7bb1ff"/><path d="m23.5 359.571v49.99l-7.674 5.736-8.326-2.556v-46.16c0-2.09 1.62-3.82 3.71-3.98 4.8-.371 8.8-1.47 12.29-3.03z" fill="#7bb1ff"/><path d="m23.5 409.561.003 50.007c-3.871 1.735-8.37 2.893-13.9 3.129-1.142.049-2.103-.86-2.103-2.003v-47.953c6.51 0 11.65-1.23 16-3.18z" fill="#62a5f4"/></g><g><path d="m504.5 262.225c4.143 0 7.5-3.358 7.5-7.5v-23.026c0-2.739-1.493-5.26-3.896-6.577-2.4-1.317-5.33-1.219-7.639.254-9.186 5.862-19.022 10.461-29.266 13.756v-19.184c0-8.303-3.571-15.786-9.256-21 4.465-4.095 7.619-9.593 8.769-15.786.431 1.016 1.026 3.598 1.385 6.04.621 3.66 3.794 6.247 7.386 6.247.416 0 .839-.035 1.263-.106 4.084-.692 6.833-4.564 6.141-8.648-.588-4.599-2.208-10.275-5.591-15.473 3.27-.808 5.697-3.753 5.697-7.273 0-4.142-3.357-7.5-7.5-7.5h-18.116c-5.006-4.354-11.536-7-18.677-7s-13.67 2.646-18.677 7h-9.531c-4.143 0-7.5 3.358-7.5 7.5s3.357 7.5 7.5 7.5h.464c-.49 2.089-.757 4.263-.757 6.5 0 8.303 3.571 15.786 9.256 21-5.685 5.214-9.256 12.697-9.256 21v13.9l-5.763-6.066c-2.853-3.003-7.601-3.124-10.604-.272-3.003 2.853-3.124 7.6-.271 10.603l6.73 7.084h-23.3v-25.25c0-8.303-3.571-15.786-9.256-21 4.554-4.177 7.745-9.813 8.836-16.158.468 1.019 1.155 3.83 1.525 6.412.621 3.66 3.794 6.247 7.386 6.247.416 0 .839-.035 1.263-.106 4.084-.692 6.833-4.564 6.141-8.648-.588-4.599-2.208-10.275-5.591-15.473 3.27-.808 5.697-3.753 5.697-7.273 0-4.142-3.357-7.5-7.5-7.5h-18.322c-5.006-4.354-11.536-7-18.677-7s-13.67 2.646-18.677 7h-9.323c-4.143 0-7.5 3.358-7.5 7.5s3.357 7.5 7.5 7.5h.257c-.49 2.089-.757 4.263-.757 6.5 0 8.303 3.571 15.786 9.256 21-5.685 5.214-9.256 12.697-9.256 21v12.453l-3.391-4.178c-2.61-3.217-7.333-3.709-10.55-1.098-3.217 2.61-3.708 7.333-1.099 10.55l6.105 7.524h-24.058v-25.25c0-8.303-3.571-15.786-9.256-21 4.551-4.174 7.74-9.806 8.834-16.146.467 1.019 1.151 3.822 1.521 6.4.621 3.66 3.794 6.247 7.386 6.247.416 0 .839-.035 1.263-.106 4.084-.692 6.833-4.564 6.141-8.648-.588-4.599-2.208-10.275-5.591-15.473 3.27-.808 5.697-3.753 5.697-7.273 0-4.142-3.357-7.5-7.5-7.5h-18.317c-5.006-4.354-11.536-7-18.677-7s-13.67 2.646-18.677 7h-9.33c-4.143 0-7.5 3.358-7.5 7.5s3.357 7.5 7.5 7.5h.264c-.49 2.089-.757 4.263-.757 6.5 0 8.303 3.571 15.786 9.256 21-5.685 5.214-9.256 12.697-9.256 21v12.198l-3.171-3.917c-2.606-3.219-7.328-3.717-10.548-1.11-3.22 2.606-3.717 7.329-1.11 10.548l6.097 7.531h-39.688c-10.8 0-20.908-4.8-27.733-13.17-6.026-7.389-8.806-16.727-7.88-26.093 1.227-.58 2.376-1.158 3.464-1.708 4.741-2.396 7.359-3.717 12.093-3.093 13.268 1.744 23.347 12.521 23.43 12.61 1.446 1.59 3.473 2.454 5.549 2.454.803 0 1.612-.129 2.398-.395 2.823-.953 4.814-3.487 5.072-6.456.185-2.124 1.55-21.119-7.304-33.917-3.651-5.279-7.435-9.661-11.415-13.222 1.688-3.142 4.579-5.091 9.102-6.245 8.242-2.104 14.665 3.872 14.915 4.108 2.114 2.057 5.237 2.684 7.981 1.603 2.744-1.082 4.599-3.672 4.74-6.618 1.121-11.814-3.35-38.682-22.537-52.262 14.35-18.599 8.47-52.737 7.25-53.183-.843-2.912-3.355-5.029-6.368-5.367-3.017-.343-5.933 1.171-7.398 3.823-3.88 7.139-10.442 19.36-20.96 27.402-2.738-1.805-4.53-4.297-5.429-7.552-1.654-5.994.244-12.818 2.871-16.196 1.447-1.86 1.936-4.292 1.319-6.566s-2.266-4.127-4.454-5.002c-6.007-2.404-20.625.282-31.991 7.978-7.758 5.253-16.761 14.552-19.476 30.191-1.877-.406-3.822-.625-5.818-.625-13.812 0-25.275 10.237-27.209 23.522-3.426-.148-7.997.813-12.291 3.614-4.733-2.793-9.21-4.573-16.285-3.058-5.006-10.212-15.932-16.25-27.472-14.886-11.48 1.355-23.745 9.898-23.745 29.806 0 10.538 6.018 24.335 19.073 30.406-1.328 2.753-2.073 5.838-2.073 9.094 0 11.58 9.421 21 21.002 21l4.762-.001c.548 3.189 1.385 6.704 2.542 10.625 1.302 4.41 2.884 8.364 4.672 11.923-23.67 27.147-32.262 66.172-21.042 100.599 4.818 14.987 10.361 26.5 17.129 35.502-4.868 2.895-8.81 6.435-12.522 9.781-7.482 6.744-13.392 12.071-26.043 12.071-4.143 0-7.5 3.358-7.5 7.5s3.357 7.5 7.5 7.5c18.413 0 27.803-8.462 36.086-15.929 7.482-6.744 13.392-12.071 26.043-12.071s18.561 5.327 26.043 12.071c8.284 7.467 17.673 15.929 36.086 15.929s27.802-8.463 36.085-15.929c7.481-6.744 13.392-12.071 26.041-12.071s18.56 5.327 26.041 12.071c8.283 7.466 17.671 15.929 36.084 15.929 18.412 0 27.8-8.463 36.082-15.929 7.481-6.744 13.391-12.071 26.039-12.071 12.649 0 18.559 5.327 26.04 12.071 8.283 7.466 17.671 15.929 36.084 15.929 18.412 0 27.8-8.463 36.083-15.929 7.481-6.744 13.391-12.071 26.041-12.071 12.649 0 18.559 5.327 26.04 12.071 8.282 7.466 17.671 15.929 36.082 15.929 4.143 0 7.5-3.358 7.5-7.5s-3.357-7.5-7.5-7.5c-9.864 0-15.628-3.246-21.237-7.871 2.755-2.483 5.369-5.122 7.784-7.936.811-.945 1.596-1.91 2.364-2.886l5.651 5.949c1.475 1.552 3.454 2.334 5.438 2.334 1.855 0 3.714-.684 5.165-2.062 3.003-2.853 3.124-7.6.271-10.603l-8.117-8.544c5.365-9.759 8.588-22.742 9.784-35.569.353-4.127-2.707-7.759-6.834-8.111-4.108-.347-7.758 2.706-8.111 6.834-.739 7.247-2.22 16.503-5.86 25.244l-51.723-54.444c20.241-.931 39.956-6.169 57.924-15.391v10.083c.001 4.142 3.358 7.5 7.501 7.5zm-75.3-84.277c0-2.356.61-4.57 1.675-6.5h23.651c1.065 1.93 1.675 4.144 1.675 6.5 0 7.444-6.056 13.5-13.5 13.5s-13.501-6.056-13.501-13.5zm27 42v23.006c-7.602 1.5-18.062 2.412-27 2.244v-25.25c0-7.444 6.056-13.5 13.5-13.5s13.5 6.057 13.5 13.5zm-117.207-42c0-2.356.61-4.57 1.675-6.5h23.651c1.065 1.93 1.675 4.144 1.675 6.5 0 7.444-6.056 13.5-13.5 13.5s-13.501-6.056-13.501-13.5zm27 42v25.25h-27v-25.25c0-7.444 6.056-13.5 13.5-13.5s13.5 6.057 13.5 13.5zm-12 75.938c0 4.136-3.364 7.5-7.5 7.5s-7.5-3.364-7.5-7.5 3.364-7.5 7.5-7.5 7.5 3.364 7.5 7.5zm-104.993-117.938c0-2.356.61-4.57 1.675-6.5h23.651c1.065 1.93 1.675 4.144 1.675 6.5 0 7.444-6.056 13.5-13.5 13.5s-13.501-6.056-13.501-13.5zm27 42v25.25h-27v-25.25c0-7.444 6.056-13.5 13.5-13.5s13.5 6.057 13.5 13.5zm-12.5 75.938c0 4.136-3.364 7.5-7.5 7.5s-7.5-3.364-7.5-7.5 3.364-7.5 7.5-7.5 7.5 3.364 7.5 7.5zm-77.63-103.214c-5.1-2.901-11.354-5.484-18.393-6.409-9.327-1.226-15.43 1.857-20.813 4.577-4.476 2.262-9.103 4.6-16.925 5.397-14.099 1.437-24.043-1.07-29.57-7.449-3.027-3.494-4.377-7.773-4.924-11.603l30.255-.007c10.954 0 19.747-4.845 26.236-12.328 3.678.511 8.967 1.132 14.341 3.523 5.704 2.926 11.021 8.027 16.255 15.594 1.682 2.429 2.804 5.519 3.538 8.705zm18.309-51.009c-4.396-1.261-9.673-1.729-15.532-.231-8.16 2.081-14.233 6.36-17.962 12.551-3.596-1.539-7.236-2.428-10.554-3.029 2.795-6.805 4.4-14.341 4.775-21.851 6.164-2.497 14.909-7.243 22.866-14.782 1.919 1.383 3.71 2.903 5.328 4.582 6.754 7.01 9.785 15.535 11.079 22.76zm-12.303-67.019c-.447 4.354-1.439 8.857-3.263 13.084-3.741 9.85-15.62 21.124-25.199 25.477-1.216-4.671-3.172-9.217-5.987-13.302 8.159-3.371 15.874-7.881 22.737-13.332 4.577-3.634 8.453-7.787 11.712-11.927zm-54.314-11.683c3.902-3.383 8.247-5.531 12.057-6.846-1.023 5.239-.915 10.771.473 15.796 1.257 4.551 3.52 8.554 6.623 11.849-3.854 1.91-7.863 3.501-11.958 4.763-4.823-2.613-10.613-4.406-17.507-5.03.904-8.472 4.355-15.368 10.312-20.532zm-30.562 29.737c6.893 0 12.5 5.607 12.5 12.5s-5.607 12.5-12.5 12.5c-4.189 0-7.894-2.078-10.163-5.25h3.663c4.143 0 7.5-3.358 7.5-7.5s-3.357-7.5-7.5-7.5h-3.289c2.291-2.888 5.824-4.75 9.789-4.75zm-69 69.5c-3.309 0-6-2.691-6-6s2.691-6 6-6h41.5c4.143 0 7.5-3.358 7.5-7.5s-3.357-7.5-7.5-7.5h-41.5-4.197c-17.995 0-18.803-18.315-18.803-18.5 0-9.071 3.534-14.087 10.503-14.911 5.568-.66 10.811 2.528 12.738 7.749 1.12 3.039 3.363 5.444 6.314 6.774 3.005 1.354 6.522 1.435 9.647.221 1.7-.662 3.768-.293 5.147.958 4.569 4.137 11.729 4.138 16.3 0 .918-.832 2.107-1.29 3.35-1.29 1.31 0 2.549.511 3.476 1.419 4.545 8.939 13.828 15.081 24.524 15.081 15.163 0 27.5-12.336 27.5-27.5 0-1.72-.166-3.4-.47-5.034 14.162 5.065 15.97 18.867 15.97 25.534 0 8.505-2.397 18.958-7.49 26.492-3.302 5.039-9.617 9.985-17.011 9.987zm42.141 14.99c.809 8.332 3.786 15.76 8.69 21.422 2.81 3.243 6.154 5.881 10.017 7.915-1.545 2.536-2.807 5.247-4.141 9.948-15.363-3.767-28.467-11.838-35.014-32.897-.688-2.329-1.236-4.446-1.659-6.381zm201.907 168.44c-7.481 6.744-13.391 12.071-26.039 12.071-12.649 0-18.56-5.327-26.041-12.071-8.283-7.466-17.671-15.929-36.084-15.929-18.412 0-27.801 8.462-36.084 15.929-7.481 6.744-13.392 12.071-26.042 12.071-13.867-.569-22.415-6.806-30.423-17.24-4.311-6.332-14.378-21.116-21.372-39.304-1.468-3.818-5.677-6.031-9.545-4.701-4.032 1.386-6.084 5.822-4.575 9.772 3.432 8.983 7.513 17.136 11.389 24.02-4.111-.576-9.826-.862-16.267.162-7.059-7.974-12.74-19.075-17.747-34.654-9.093-27.661-3.085-60.204 15.644-82.931 3.329 3.689 6.9 6.659 10.506 9.054-3.399 6.658-8.202 17.246-10.222 27.35-1.301 6.504-1.791 13.386-1.455 20.452.19 4.016 3.507 7.145 7.485 7.144 3.35.04 7.423-3.103 7.491-7.99-.265-5.795.134-11.401 1.188-16.665 1.692-8.461 5.964-17.778 8.947-23.604 7.021 2.308 10.773 3.136 17.311 4.373 3.308.633 8.662-1.884 8.662-9.067 0-2.725 1.357-10.994 6.778-12.6 4.801.494 10.032.468 15.708-.111 1.238-.126 2.413-.284 3.542-.465.277 11.602 4.528 22.845 12.315 31.884 9.804 11.381 24.306 17.62 39.327 17.62h50.966l11.584 14.31c-9.617 3.159-16.396 12.632-15.397 23.496.977 10.62 9.527 19.228 20.14 20.27 9.219.906 17.453-3.797 21.708-11.091l21.957 27.123c-6.22 3.112-10.951 7.352-15.355 11.322zm72.165 0c-8.529-8.38-22.289-17.809-41.047-15.688l-56.457-69.741h70.523l11.751 14.481c-8.724 3.099-14.99 11.433-14.99 21.206 0 12.407 10.094 22.5 22.5 22.5 8.118 0 15.245-4.323 19.203-10.787l34.874 42.976c-5.329 4.224-10.99 7.123-20.316 7.123-12.65 0-18.56-5.326-26.041-12.07zm125.451-13.505c-2.402 2.799-5.037 5.397-7.839 7.795-6.982-5.5-15.698-10.219-29.447-10.219-14.432 0-23.311 5.202-30.468 11.045l-65.36-80.545h71.993l14.05 14.789c-8.298 3.316-14.178 11.431-14.178 20.898 0 12.407 10.094 22.5 22.5 22.5 9.059 0 16.88-5.385 20.443-13.12l21.589 22.725c-1.043 1.413-2.135 2.793-3.283 4.132zm-31.249-36.237c0 4.136-3.364 7.5-7.5 7.5s-7.5-3.364-7.5-7.5 3.364-7.5 7.5-7.5 7.5 3.364 7.5 7.5z"/><path d="m166 273.386c-12.406 0-22.5 10.093-22.5 22.5s10.094 22.5 22.5 22.5 22.5-10.093 22.5-22.5-10.094-22.5-22.5-22.5zm0 30c-4.136 0-7.5-3.364-7.5-7.5s3.364-7.5 7.5-7.5 7.5 3.364 7.5 7.5-3.364 7.5-7.5 7.5z"/><path d="m193.884 394.698c12.649 0 18.56 5.327 26.041 12.071 8.283 7.466 17.671 15.929 36.084 15.929 18.411 0 27.799-8.463 36.081-15.929 3.875-3.493 7.534-6.792 11.951-9.009 3.702-1.858 5.197-6.366 3.339-10.068s-6.367-5.196-10.067-3.338c-6.228 3.126-10.822 7.268-15.266 11.274-7.481 6.744-13.39 12.07-26.038 12.07-12.649 0-18.56-5.327-26.041-12.071-8.283-7.466-17.671-15.929-36.084-15.929-18.412 0-27.801 8.462-36.084 15.929-7.481 6.744-13.392 12.071-26.042 12.071-12.651 0-18.561-5.327-26.043-12.071-8.283-7.467-17.673-15.929-36.086-15.929s-27.803 8.462-36.086 15.929c-7.482 6.744-13.392 12.071-26.043 12.071-4.143 0-7.5 3.358-7.5 7.5s3.357 7.5 7.5 7.5c18.413 0 27.803-8.462 36.086-15.929 7.482-6.744 13.392-12.071 26.043-12.071s18.561 5.327 26.043 12.071c8.283 7.467 17.673 15.929 36.086 15.929s27.802-8.463 36.085-15.929c7.481-6.744 13.391-12.071 26.041-12.071z"/><path d="m504.5 407.698c-12.648 0-18.558-5.327-26.039-12.07-8.282-7.467-17.671-15.93-36.083-15.93-18.413 0-27.801 8.463-36.084 15.929-7.481 6.744-13.391 12.071-26.04 12.071s-18.56-5.327-26.041-12.071c-4.468-4.028-9.088-8.193-15.365-11.323-3.709-1.849-8.211-.343-10.06 3.364s-.342 8.21 3.364 10.059c4.448 2.218 8.125 5.533 12.018 9.042 8.283 7.466 17.672 15.929 36.084 15.929s27.8-8.463 36.083-15.929c7.481-6.744 13.391-12.071 26.041-12.071 12.649 0 18.559 5.327 26.04 12.071 8.282 7.466 17.671 15.929 36.082 15.929 4.143 0 7.5-3.358 7.5-7.5s-3.357-7.5-7.5-7.5z"/><path d="m116.539 454.038c-3.916-2.185-7.271-5.208-10.823-8.41-8.284-7.467-17.673-15.93-36.087-15.93-18.413 0-27.803 8.462-36.086 15.929-7.482 6.744-13.392 12.071-26.043 12.071-4.143 0-7.5 3.358-7.5 7.5s3.357 7.5 7.5 7.5c18.413 0 27.803-8.462 36.086-15.929 7.482-6.744 13.392-12.071 26.043-12.071s18.562 5.327 26.044 12.071c4.014 3.618 8.164 7.359 13.558 10.368 3.62 2.018 8.186.721 10.204-2.896 2.017-3.616.721-8.185-2.896-10.203z"/><path d="m504.5 457.698c-12.648 0-18.558-5.327-26.039-12.07-8.282-7.467-17.671-15.93-36.083-15.93-18.413 0-27.801 8.463-36.084 15.929-7.481 6.744-13.391 12.071-26.04 12.071-12.65 0-18.56-5.327-26.041-12.071-8.283-7.467-17.671-15.929-36.083-15.929s-27.8 8.463-36.082 15.929c-7.481 6.744-13.391 12.071-26.039 12.071-12.649 0-18.56-5.327-26.041-12.071-8.283-7.466-17.671-15.929-36.084-15.929s-27.802 8.463-36.085 15.929c-4.389 3.956-8.533 7.692-13.856 9.877-3.832 1.573-5.663 5.955-4.091 9.786 1.572 3.832 5.954 5.663 9.786 4.091 7.734-3.175 13.297-8.188 18.204-12.612 7.482-6.744 13.392-12.071 26.042-12.071 12.649 0 18.56 5.327 26.041 12.071 8.283 7.466 17.671 15.929 36.084 15.929 18.412 0 27.8-8.463 36.082-15.929 7.481-6.744 13.391-12.071 26.039-12.071 12.649 0 18.559 5.327 26.04 12.071 8.283 7.466 17.671 15.929 36.084 15.929 18.412 0 27.8-8.462 36.083-15.929 7.481-6.744 13.391-12.071 26.041-12.071 12.649 0 18.559 5.327 26.04 12.071 8.282 7.466 17.671 15.929 36.082 15.929 4.143 0 7.5-3.358 7.5-7.5s-3.357-7.5-7.5-7.5z"/></g></g></svg>