<svg height="480pt" viewBox="0 0 480 480" width="480pt" xmlns="http://www.w3.org/2000/svg"><path d="m144 208h192v64h-192zm0 0" fill="#c6c1b3"/><path d="m184 144h112v32h-112zm0 0" fill="#c6c1b3"/><path d="m96 272h288v200h-288zm0 0" fill="#c6c1b3"/><path d="m384 328h80v144h-80zm0 0" fill="#b2aea3"/><path d="m32 144h64v328h-64zm0 0" fill="#c6c1b3"/><path d="m16 328h80v144h-80zm0 0" fill="#b2aea3"/><path d="m80 64h-32l-8 8v72h48v-72zm0 0" fill="#9e9a92"/><path d="m56 0h16v32h-16zm0 0" fill="#9e9a92"/><path d="m64 24c-8.800781 0-16 7.199219-16 16v24h32v-24c0-8.800781-7.199219-16-16-16zm0 0" fill="#b2aea3"/><path d="m384 320h96v16h-96zm0 0" fill="#9e9a92"/><path d="m384 352h80v16h-80zm0 0" fill="#9e9a92"/><path d="m280 240h-80c-8.800781 0-16 7.199219-16 16v16h112v-16c0-8.800781-7.199219-16-16-16zm0 0" fill="#4f4b47"/><path d="m216 112h48v32h-48zm0 0" fill="#b2aea3"/><path d="m232 48h16v64h-16zm0 0" fill="#c6c1b3"/><path d="m216 64h48v16h-48zm0 0" fill="#c6c1b3"/><path d="m0 320h96v16h-96zm0 0" fill="#9e9a92"/><path d="m56 176h16v24h-16zm0 0" fill="#4f4b47"/><path d="m56 224h16v24h-16zm0 0" fill="#4f4b47"/><path d="m56 272h16v24h-16zm0 0" fill="#4f4b47"/><path d="m16 136h96v16h-96zm0 0" fill="#b2aea3"/><path d="m0 352h96v16h-96zm0 0" fill="#9e9a92"/><path d="m168 136h144v16h-144zm0 0" fill="#9e9a92"/><g fill="#4f4b47"><path d="m48 384h16v64h-16zm0 0"/><path d="m416 384h16v64h-16zm0 0"/><path d="m148 360c-11.199219 0-20 8.800781-20 20v92h40v-92c0-11.199219-8.800781-20-20-20zm0 0"/><path d="m332 360c-11.199219 0-20 8.800781-20 20v92h40v-92c0-11.199219-8.800781-20-20-20zm0 0"/><path d="m200 336h80v136h-80zm0 0"/></g><path d="m0 464h480v16h-480zm0 0" fill="#9e9a92"/><path d="m96 272h288v32h-288zm0 0" fill="#b2aea3"/><path d="m96 264h304v16h-304zm0 0" fill="#9e9a92"/><path d="m144 176h192v32h-192zm0 0" fill="#b2aea3"/><path d="m128 200h224v16h-224zm0 0" fill="#9e9a92"/><path d="m328 160h16v48h-16zm0 0" fill="#9e9a92"/><path d="m136 160h16v48h-16zm0 0" fill="#9e9a92"/><path d="m480 336v-16h-88v-40h8v-16h-56v-48h8v-16h-8v-40h-16v8h-24v-16h8v-16h-40v-32h-24v-24h16v-16h-16v-16h-16v16h-16v16h16v24h-24v32h-40v16h8v16h-24v-8h-16v40h-8v16h8v48h-32v-112h8v-16h-16v-67.199219l-8-8v-20.800781c0-10.398438-6.398438-19.199219-16-22.398438v-17.601562h-16v17.601562c-9.601562 3.199219-16 12-16 22.398438v20.800781l-8 8v67.199219h-16v16h8v168h-24v16h8v16h-8v16h8v96h-8v16h480v-16h-8v-128zm-136 128h-24v-84c0-6.398438 5.601562-12 12-12s12 5.601562 12 12zm-12-112c-15.199219 0-28 12.800781-28 28v84h-16v-136h-96v136h-16v-84c0-15.199219-12.800781-28-28-28s-28 12.800781-28 28v84h-16v-152h272v152h-16v-84c0-15.199219-12.800781-28-28-28zm-60 112h-64v-120h64zm-112 0h-24v-84c0-6.398438 5.601562-12 12-12s12 5.601562 12 12zm64-344h32v16h-32zm-32 32h96v16h-96zm-40 32h176v16h-176zm0 32h176v48h-24v-8c0-13.601562-10.398438-24-24-24h-80c-13.601562 0-24 10.398438-24 24v8h-24zm136 48h-96v-8c0-4.800781 3.199219-8 8-8h80c4.800781 0 8 3.199219 8 8zm88 16v16h-272v-16zm-312-248c4.800781 0 8 3.199219 8 8v16h-16v-16c0-4.800781 3.199219-8 8-8zm-16 43.199219 3.199219-3.199219h25.601562l3.199219 3.199219v60.800781h-32zm-8 76.800781h48v168h-48zm-16 184h64v16h-64zm0 32h64v96h-64zm368 96v-96h64v96zm64-112h-64v-16h64zm0 0"/><path d="m56 176h16v24h-16zm0 0"/><path d="m56 224h16v24h-16zm0 0"/><path d="m56 272h16v24h-16zm0 0"/><path d="m48 384h16v64h-16zm0 0"/><path d="m416 384h16v64h-16zm0 0"/></svg>