<svg id="Capa_1" enable-background="new 0 0 508 508" height="512" viewBox="0 0 508 508" width="512" xmlns="http://www.w3.org/2000/svg"><g><path d="m388 253.07v44.93c11.05 0 20 8.94 20 20s-8.95 20-20 20h-24.89c11.9 0 19.63 12.52 14.31 23.16l-8.42 16.84v120h-230v-120l-8.42-16.84c-5.32-10.64 2.41-23.16 14.31-23.16h-26.89c-11.05 0-20-9-20-20s8.95-20 20-20v-44.35c-5.49 1.53-11.27 2.35-17.24 2.35-42.39 0-76.76-34.15-76.76-76.27 0-38.25 24.08-70.9 58-83.82v-45.91h-20v-40h384v40h-20v45.91c33.92 12.92 58 45.57 58 83.82 0 42.12-34.37 76.27-76.76 76.27-6.7 0-13.16-1.03-19.24-2.93z" fill="#fffbdf"/><path d="m234 498v-60c0-11.046 9-20 20-20s20 8.954 20 20v60zm-55 0v-60c0-11.046-9-20-20-20s-20 8.954-20 20v60zm190 0v-60c0-11.046-9-20-20-20s-20 8.954-20 20v60zm-27-307.59c0-5 .72-9.84 2.06-14.41h-180.12c1.34 4.57 2.06 9.41 2.06 14.41 0 18.6-7.88 35.57-20.51 47.59h217.02c-12.63-12.02-20.51-28.99-20.51-47.59zm-259-140.41v45.53c9.75-3.57 20.29-5.53 31.3-5.53h279.4c11.01 0 21.55 1.96 31.3 5.53v-45.53z" fill="#ffda8f"/><path d="m407.243 266c47.838 0 86.757-38.701 86.757-86.271 0-39.972-23.774-74.526-58-90.42v-29.309h10c5.523 0 10-4.477 10-10v-40c0-5.523-4.477-10-10-10h-148c-5.74 0-10.372 4.871-9.976 10.693.36 5.307 5.015 9.307 10.334 9.307h137.642v20h-364v-20h136c5.74 0 10.373-4.872 9.976-10.694-.361-5.306-5.016-9.306-10.334-9.306h-145.642c-5.523 0-10 4.477-10 10v40c0 5.523 4.477 10 10 10h10v29.309c-34.226 15.894-58 50.448-58 90.42 0 47.57 38.919 86.271 86.757 86.271 2.443 0 4.859-.118 7.243-.348v24.062c-11.64 4.127-20 15.249-20 28.286 0 16.343 11.997 29.676 31.573 29.994-1.401 5.845-.729 12.055 2.06 17.634l7.367 14.733v117.639c0 5.523 4.477 10 10 10h230c5.523 0 10-4.477 10-10v-117.639l7.367-14.733c2.789-5.577 3.461-11.787 2.061-17.631 16.345-.23 29.572-13.598 29.572-29.997 0-13.037-8.36-24.159-20-28.286v-24.281c3.03.374 6.114.567 9.243.567zm-315.243-206h324v22.485c-7.175-1.626-14.639-2.485-22.302-2.485h-279.396c-7.663 0-15.128.859-22.302 2.485zm77 428h-20v-50c0-5.514 4.486-10 10-10s10 4.486 10 10zm95 0h-20v-50c0-5.514 4.486-10 10-10s10 4.486 10 10zm95 0h-20v-50c0-5.514 4.486-10 10-10s10 4.486 10 10zm0-78.286c-3.129-1.11-6.495-1.714-10-1.714-16.542 0-30 13.458-30 30v50h-35v-50c0-16.542-13.458-30-30-30s-30 13.458-30 30v50h-35v-50c0-16.542-13.458-30-30-30-3.505 0-6.871.604-10 1.714v-21.714h210zm9.478-53.031-5.658 11.317h-217.64l-5.658-11.317c-2.006-4.393 1.276-8.683 5.367-8.683h218.223c4.211 0 7.501 4.484 5.366 8.683zm19.522-28.683h-270c-5.514 0-10-4.486-10-10s4.486-10 10-10h270c5.514 0 10 4.486 10 10s-4.486 10-10 10zm-212.157-142h18.157v42h-27.979c6.347-11.078 9.979-23.914 9.979-37.587 0-1.484-.053-2.955-.157-4.413zm182.714 62c5.794 4.951 12.342 9.037 19.443 12.057v27.943h-250v-27.126c7.875-3.083 15.109-7.462 21.443-12.874zm-144.557-20v-42h30v42zm50 0v-42h28v42zm77.979 0h-29.979v-42h20.157c-.104 1.458-.157 2.929-.157 4.413 0 13.673 3.633 26.509 9.979 37.587zm10.021-37.587c0-22.918 18.793-41.563 41.892-41.563 18.807 0 34.108 15.175 34.108 33.829 0 12.019-9.869 21.797-22 21.797-5.523 0-10 4.477-10 10s4.477 10 10 10c23.159 0 42-18.75 42-41.797 0-29.681-24.272-53.829-54.108-53.829-25.412 0-47.297 15.313-56.817 37.15h-166.151c-9.52-21.836-31.404-37.15-56.817-37.15-29.835 0-54.107 24.148-54.107 53.829 0 23.047 18.841 41.797 42 41.797 5.523 0 10-4.477 10-10s-4.477-10-10-10c-12.131 0-22-9.778-22-21.797 0-18.653 15.301-33.829 34.108-33.829 23.099 0 41.892 18.645 41.892 41.563 0 30.651-24.782 55.587-55.243 55.587-36.81 0-66.757-29.729-66.757-66.271 0-43.962 36.023-79.729 80.302-79.729h279.396c44.279 0 80.302 35.767 80.302 79.729 0 36.542-29.947 66.271-66.757 66.271-30.461 0-55.243-24.936-55.243-55.587zm-109-180.413c0-5.51 4.49-10 10-10s10 4.49 10 10-4.49 10-10 10-10-4.49-10-10z"/></g></svg>