<svg id="Capa_1" enable-background="new 0 0 512 512" height="512" viewBox="0 0 512 512" width="512" xmlns="http://www.w3.org/2000/svg"><g><g><g fill="#f4ddb1"><path d="m363.967 117.11h-16.85v149.593h157.383v-93.536zm99.116 136.724h-66.267v-39.251c0-18.299 14.834-33.133 33.133-33.133s33.133 14.834 33.133 33.133v39.251z"/><path d="m164.883 117.11h-16.85l-140.533 56.057v93.536h157.383zm-49.7 136.724h-66.266v-39.251c0-18.299 14.834-33.133 33.133-33.133s33.133 14.834 33.133 33.133z"/></g><path d="m256.729 17.165-113.872 67.024v18.408l22.026 50.181v76.205h49.7v-97.233c0-22.874 18.543-41.417 41.417-41.417s41.417 18.543 41.417 41.417v97.232h51.158v-76.205l22.026-50.181v-18.407z" fill="#efcb84"/><path d="m481.5 266.703h23v-93.536l-23-9.175z" fill="#efcb84"/><g fill="#f9efda"><path d="m498.653 136.702-126.686-38.98h-24.85v32.117h16.567l140.816 43.328v-28.548c0-3.636-2.372-6.847-5.847-7.917z"/><path d="m164.883 97.722h-24.85l-126.686 38.98c-3.476 1.069-5.847 4.281-5.847 7.917v28.548l140.817-43.328h16.567v-32.117z"/></g><path d="m498.653 136.702-22.737-6.996c3.327 1.15 5.584 4.271 5.584 7.812v28.548l23 7.101v-28.548c0-3.636-2.372-6.847-5.847-7.917z" fill="#f4ddb1"/><g><path d="m330.55 108.982h33.133v118.569h-33.133z" fill="#f9efda"/><path d="m363.967 117.11h-33.7c-4.418 0-8-3.582-8-8v-21.133c0-2.209 1.791-4 4-4h41.7c2.209 0 4 1.791 4 4v21.133c0 4.419-3.582 8-8 8z" fill="#f6e266"/><path d="m367.967 83.977h-22.996c2.209 0 4 1.791 4 4v21.133c0 4.418-3.582 8-8 8h22.996c4.418 0 8-3.582 8-8v-21.133c0-2.209-1.791-4-4-4z" fill="#ffc250"/></g><g><path d="m148.317 108.982h33.133v118.569h-33.133z" fill="#f9efda"/><path d="m181.733 117.11h-33.7c-4.418 0-8-3.582-8-8v-21.133c0-2.209 1.791-4 4-4h41.7c2.209 0 4 1.791 4 4v21.133c0 4.419-3.581 8-8 8z" fill="#f6e266"/><path d="m185.733 83.977h-22.996c2.209 0 4 1.791 4 4v21.133c0 4.418-3.582 8-8 8h22.996c4.418 0 8-3.582 8-8v-21.133c0-2.209-1.79-4-4-4z" fill="#ffc250"/></g><g><path d="m504.5 301.369v78.881l-75.901 12.165v-20.449c-19.661-48.57-67.279-82.832-122.899-82.832h-33.31l-16.39-14.354-16.39 14.354h-33.31c-55.62 0-103.238 34.262-122.899 82.833v20.449l-75.901-12.166v-78.881l203.445-78.502h94.679z" fill="#f4ddb1"/><path d="m481.5 383.936 23-3.686v-78.881l-23-9.079z" fill="#efcb84"/><g><path d="m239.61 289.133-8.46-49.7 24.85-10.451 24.85 10.451-8.46 49.7z" fill="#efcb84"/></g><path d="m504.5 266.703-193.928-59.67c-1.578-.486-3.221-.733-4.872-.733h-99.4c-1.652 0-3.294.247-4.872.733l-193.928 59.67v34.666l200.1-61.569c.789-.243 1.61-.366 2.436-.366h91.927c.826 0 1.647.124 2.436.366l200.1 61.569v-34.666z" fill="#f9efda"/><path d="m481.5 294.292 23 7.077v-34.666l-23-7.077z" fill="#f4ddb1"/></g><path d="m239.446 93.784c5.071-2.214 10.667-3.451 16.554-3.451s11.483 1.236 16.555 3.451h.016l8.28-42.705-24.851-23.18-24.85 23.18 8.283 42.705z" fill="#f4ddb1"/><g><path d="m374.96 86.37-116.052-43.52c-1.875-.703-3.942-.703-5.817 0l-116.051 43.52c-4.283 1.606-9.058-.564-10.664-4.847l-5.817-15.512c-1.606-4.283.564-9.058 4.847-10.664l124.777-46.792c3.75-1.406 7.883-1.406 11.634 0l124.777 46.791c4.284 1.606 6.454 6.381 4.848 10.664l-5.817 15.512c-1.607 4.284-6.381 6.455-10.665 4.848z" fill="#f9efda"/></g><path d="m386.594 55.346-23-8.587c4.284 1.606 6.454 6.381 4.848 10.664l-5.817 15.512c-1.523 4.061-5.893 6.217-9.994 5.061l22.329 8.374c4.283 1.606 9.058-.564 10.664-4.847l5.817-15.512c1.607-4.284-.563-9.058-4.847-10.665z" fill="#f4ddb1"/><g><path d="m488.5 504.5h-465c-8.837 0-16-7.163-16-16v-108.533c0-4.418 3.582-8 8-8h107.967l124.25 19.877 124.25-19.877h124.533c4.418 0 8 3.582 8 8v108.533c0 8.837-7.163 16-16 16z" fill="#b1e4f9"/><g fill="#90d8f9"><path d="m496.5 371.967h-23c4.418 0 8 3.582 8 8v108.533c0 8.836-7.163 16-16 16h23c8.837 0 16-7.164 16-16v-108.533c0-4.419-3.582-8-8-8z"/><path d="m371.967 371.967c9.15 0 16.567 7.417 16.567 16.567s-7.417 16.567-16.567 16.567h-82.833c-9.15 0-16.567 7.417-16.567 16.567 0 9.149 7.417 16.567 16.567 16.567h33.133c9.15 0 16.567 7.417 16.567 16.567 0 9.149-7.417 16.567-16.567 16.567h-149.1c-9.15 0-16.567-7.417-16.567-16.567s7.417-16.567 16.567-16.567h33.133c9.15 0 16.567-7.417 16.567-16.567s-7.417-16.567-16.567-16.567h-82.833c-9.149 0-16.567-7.417-16.567-16.567 0-9.149 7.417-16.567 16.567-16.567z"/><path d="m106.9 471.367c9.15 0 16.567-7.417 16.567-16.567s-7.417-16.567-16.567-16.567h-16.567c-9.149 0-16.567 7.417-16.567 16.567 0 9.149 7.417 16.567 16.567 16.567z"/></g></g></g><g><path d="m458.941 314.767h-8.283c-4.142 0-7.5 3.358-7.5 7.5s3.358 7.5 7.5 7.5h8.283c4.142 0 7.5-3.358 7.5-7.5s-3.357-7.5-7.5-7.5z"/><path d="m61.342 314.767h-8.284c-4.142 0-7.5 3.358-7.5 7.5s3.358 7.5 7.5 7.5h8.284c4.142 0 7.5-3.358 7.5-7.5s-3.358-7.5-7.5-7.5z"/><path d="m90.334 478.867h16.566c13.271 0 24.067-10.796 24.067-24.067 0-13.27-10.796-24.066-24.067-24.066h-16.566c-13.271 0-24.067 10.796-24.067 24.066s10.796 24.067 24.067 24.067zm0-33.134h16.566c5 0 9.067 4.067 9.067 9.066 0 5-4.067 9.067-9.067 9.067h-16.566c-5 0-9.067-4.067-9.067-9.067 0-4.998 4.067-9.066 9.067-9.066z"/><path d="m500.858 129.534-117.485-36.15c4.132-1.543 7.607-4.783 9.274-9.228l5.817-15.513c1.48-3.947 1.335-8.235-.41-12.073s-4.879-6.767-8.827-8.247l-124.777-46.791c-5.449-2.043-11.451-2.043-16.9 0l-124.777 46.792c-3.948 1.48-7.083 4.409-8.827 8.247s-1.89 8.126-.41 12.074l5.817 15.512c1.48 3.947 4.409 7.082 8.247 8.827.337.153.682.274 1.025.402l-117.483 36.148c-6.664 2.05-11.142 8.113-11.142 15.085v47.381c0 4.142 3.358 7.5 7.5 7.5s7.5-3.358 7.5-7.5v-13.295l125.816-38.712v77.842l-18.133 5.58v-8.832c0-22.405-18.228-40.633-40.633-40.633s-40.633 18.228-40.633 40.633v33.837l-26.417 8.128v-34.393c0-4.142-3.358-7.5-7.5-7.5s-7.5 3.358-7.5 7.5v266.345c0 12.958 10.542 23.5 23.5 23.5h12.917c4.142 0 7.5-3.358 7.5-7.5s-3.358-7.5-7.5-7.5h-12.917c-4.687 0-8.5-3.813-8.5-8.5v-108.25-.283c0-.276.224-.5.5-.5h85.679c-1.143 2.8-1.779 5.86-1.779 9.066 0 13.271 10.796 24.067 24.067 24.067h82.833c4.999 0 9.067 4.067 9.067 9.066 0 5-4.067 9.067-9.067 9.067h-33.133c-13.271 0-24.066 10.796-24.066 24.066s10.796 24.067 24.066 24.067h149.1c13.271 0 24.067-10.796 24.067-24.067s-10.796-24.066-24.067-24.066h-33.133c-5 0-9.067-4.067-9.067-9.067 0-4.999 4.067-9.066 9.067-9.066h82.833c13.27 0 24.066-10.796 24.066-24.067 0-3.207-.635-6.266-1.779-9.066h34.334c.004 0 .009.001.013.001.007 0 .014-.001.021-.001h67.878c.276 0 .5.224.5.5v.283 108.25c0 4.687-3.813 8.5-8.5 8.5h-422.083c-4.142 0-7.5 3.358-7.5 7.5s3.358 7.5 7.5 7.5h422.083c12.958 0 23.5-10.542 23.5-23.5v-343.881c0-6.972-4.477-13.035-11.142-15.085zm-405.763 234.933c21.305-41.547 63.803-67.833 111.205-67.833h99.4c47.402 0 89.9 26.286 111.205 67.833zm150.846-82.834-5.906-34.7h31.932l-5.907 34.7zm-35.904-49.7c-1.576 0-3.139.235-4.642.698l-190.395 58.583v-18.971l188.635-58.042c.864-.266 1.761-.401 2.666-.401h99.399c.904 0 1.801.135 2.667.401l188.633 58.042v18.971l-190.392-58.582c-1.506-.464-3.069-.699-4.645-.699zm-61.721-122.323h-.283c-.276 0-.5-.224-.5-.5v-11.323c0-.028 0-.056 0-.084v-6.226h34.7v17.633c0 .276-.224.5-.5.5h-.283zm40.634 13.207c4.919-2.601 8.283-7.765 8.283-13.706v-21.134c0-6.341-5.159-11.5-11.5-11.5h-.953l40.696-15.261 5.529 28.507c-14.312 8.544-23.922 24.181-23.922 42.027v67.05h-.783c-2.402 0-4.784.358-7.078 1.064l-10.273 3.161v-80.208zm308.05 133.731-26.416-8.128v-33.837c0-22.405-18.228-40.633-40.634-40.633-22.405 0-40.633 18.228-40.633 40.633v8.831l-18.133-5.58v-77.842l125.816 38.714zm-41.416-12.743-51.267-15.775v-13.447c0-14.134 11.499-25.633 25.633-25.633s25.634 11.499 25.634 25.633zm-117.534-36.164v-83.03h18.133v5.209.084 83.316zm-7.783-98.031c-.276 0-.5-.224-.5-.5v-17.633h34.7v6.226.084 11.324c0 .276-.224.5-.5.5h-.284-33.133-.283zm40.916 14.689v-1.483c4.92-2.601 8.284-7.765 8.284-13.706v-1.234l51.267 15.774v18.971zm-44.916-47.822c-6.341 0-11.5 5.159-11.5 11.5v21.133c0 5.941 3.364 11.105 8.283 13.706v80.209l-10.272-3.16c-2.295-.707-4.677-1.065-7.079-1.065h-.783v-67.05c0-17.845-9.609-33.481-23.92-42.026l5.528-28.508 40.695 15.261zm-104.183 122.323v-67.05c0-18.702 15.215-33.917 33.916-33.917s33.917 15.215 33.917 33.917v67.05zm44.733-114.746c-3.482-.789-7.099-1.22-10.817-1.22-3.717 0-7.333.431-10.814 1.22l-5.466-28.179 16.004-6.002c.178-.066.374-.066.551 0l16.005 6.002zm230.183 60.565v18.393l-51.267-15.774v-18.971l50.714 15.604c.331.101.553.402.553.748zm-369.419-81.242c-.076-.202-.069-.403.021-.599.089-.196.236-.334.438-.41l124.777-46.792c1.026-.384 2.104-.576 3.183-.576s2.157.192 3.184.577l124.777 46.792c.202.076.349.213.438.41.089.196.096.398.021.599l-5.817 15.512c-.152.404-.604.609-1.008.458l-116.052-43.52c-3.573-1.339-7.509-1.339-11.083.001l-116.052 43.52c-.201.076-.403.068-.599-.02-.196-.089-.333-.236-.409-.438zm-112.581 81.242c0-.346.222-.647.553-.749l50.714-15.604v18.971l-51.267 15.775zm66.267-1.997v-18.971l51.267-15.774v1.234c0 5.941 3.364 11.105 8.283 13.706v1.483zm74.549-12.718c0-.028 0-.056 0-.084v-5.209h18.134v83.03l-18.134 5.58zm-99.399 84.68c0-14.134 11.499-25.633 25.633-25.633s25.633 11.499 25.633 25.633v13.447l-51.267 15.774v-29.221zm-41.417 149.908v-57.584l194.81-59.941c.073-.023.149-.034.227-.034h14.782l5.906 34.7h-24.425c-28.44 0-55.82 8.479-79.18 24.52-21.399 14.694-38.144 34.781-48.674 58.313h-62.946c-.169.001-.332.021-.5.026zm366.033 24.041c0 5-4.067 9.067-9.066 9.067h-82.833c-13.271 0-24.067 10.796-24.067 24.066 0 13.271 10.796 24.067 24.067 24.067h33.133c5 0 9.067 4.067 9.067 9.066 0 5-4.067 9.067-9.067 9.067h-149.1c-4.999 0-9.066-4.067-9.066-9.067 0-4.999 4.067-9.066 9.066-9.066h33.133c13.27 0 24.067-10.796 24.067-24.067 0-13.27-10.796-24.066-24.067-24.066h-82.833c-4.999 0-9.067-4.067-9.067-9.067 0-4.999 4.067-9.066 9.067-9.066h248.5c4.999 0 9.066 4.067 9.066 9.066zm115.467-24.066h-62.946c-10.53-23.533-27.276-43.619-48.674-58.313-23.359-16.041-50.739-24.52-79.18-24.52h-24.426l5.907-34.7h14.782c.078 0 .154.011.23.035l194.807 59.939v57.584c-.167-.005-.331-.025-.5-.025z"/></g></g></svg>