<svg height="512" viewBox="0 0 60 60" width="512" xmlns="http://www.w3.org/2000/svg"><g id="035---Garden" fill="none"><g id="Icons"><path id="Shape" d="m19 50v4c0 .5522847-.4477153 1-1 1h-16c-.55228475 0-1-.4477153-1-1v-4z" fill="#607d8b"/><path id="Shape" d="m16 50v4c0 .5522847-.4477153 1-1 1h3c.5522847 0 1-.4477153 1-1v-4z" fill="#37474f"/><path id="Shape" d="m59 50v4c0 .5522847-.4477153 1-1 1h-16c-.5522847 0-1-.4477153-1-1v-4z" fill="#607d8b"/><path id="Shape" d="m56 50v4c0 .5522847-.4477153 1-1 1h3c.5522847 0 1-.4477153 1-1v-4z" fill="#37474f"/><path id="Shape" d="m44 55c0 2.209139-1.790861 4-4 4h-20c-2.209139 0-4-1.790861-4-4h2c.5522847 0 1-.4477153 1-1 0-4.27-.2-5.18.8-7h20.39c.5240277.9134836.8030515 1.946905.81 3v4c0 .5522847.4477153 1 1 1z" fill="#02a9f4"/><path id="Shape" d="m42 55c-.5522847 0-1-.4477153-1-1 0-4.06.21-5.18-.81-7h-3c.5240277.9134836.8030515 1.946905.81 3v4c0 .5522847.4477153 1 1 1h2c0 2.209139-1.790861 4-4 4h3c2.209139 0 4-1.790861 4-4z" fill="#0377bc"/><g fill="#bb193b"><path id="Shape" d="m43.12 18h-.12c-1.0819045 1.7039555-2.8950093 2.8075447-4.9055275 2.9858655-2.0105182.1783209-3.9895551-.5889283-5.3544725-2.0758655-.7942768.1994227-1.6355541.0654754-2.3286219-.3707608-.6930679-.4362362-1.1776768-1.1368385-1.3413781-1.9392392 1.06-1 1.17-1.67 1.93-1.58 1.6617879.1287678 3.2674757-.6322216 4.22-2 1.9561407 1.6310213 4.6654189 2.018061 7 1l.34-.16z"/><path id="Shape" d="m42.25 13.91c-.2207874.1013241-.4479339.1881742-.68.26.23-.07.43-.17.68-.26z"/><path id="Shape" d="m42.59 13.73-.12.05c.06-.01.08-.04.12-.05z"/></g><path id="Shape" d="m42.59 13.73-.12.05c.06-.01.08-.04.12-.05z" fill="#783e22"/><path id="Shape" d="m55 24c-1.8478041-.0009324-3.4557662 1.2639427-3.89 3.06-7.67-6.54-7.38-6.16-7.46-6.65-.5275875-2.1887377-.8820162-4.4156196-1.06-6.66l.4-.25c.3266718-.2068639.7433282-.2068639 1.07 0 .8630646.6537089 1.917323 1.0051283 3 1l.4 2.75c.0467537.3231702.2483453.6031585.54.75l5.32 2.91c-.4000236.6154003-.4308164 1.4004738-.0802229 2.0453154.3505934.6448415 1.0262372 1.0458331 1.7602229 1.0446846z" fill="#a0522d"/><path id="Shape" d="m53.32 20.91-5.32-2.91c-.2890425-.1448679-.4902103-.4205423-.54-.74l-.4-2.75c-1.082677.0051283-2.1369354-.3462911-3-1-.3266718-.2068639-.7433282-.2068639-1.07 0l-.4.25c0 .2 0 .38.07.57.4556962.1274736.9268123.1914108 1.4.19l.4 2.75c.0527803.3157393.2535319.5871257.54.73l5.32 2.91c-.4000236.6154003-.4308164 1.4004738-.0802229 2.0453154.3505934.6448415 1.0262372 1.0458331 1.7602229 1.0446846-1.1202006.0057232-2.1866699.4809186-2.94 1.31l2 1.75c.4384917-1.8143564 2.0735658-3.0842363 3.94-3.06-.7339857.0011485-1.4096295-.3998431-1.7602229-1.0446846-.3505935-.6448416-.3198007-1.4299151.0802229-2.0453154z" fill="#783e22"/><path id="Shape" d="m20.77 18.71c0 .1 0-.09-1.77 8.7-.09.49.5-.12-10.31 8.86-.37-.33-.6-.27-1.69-.27l1.89-2.55c.15596925-.3095182.14054526-.6777279-.04076307-.9731178-.18130834-.29539-.50264372-.4758333-.84923693-.4768822h-3c2.209139 0 4-1.790861 4-4l5.46-3c.2890425-.1448679.4902103-.4205423.54-.74l.94-5.26c.4026662-.2768267.7602062-.6141285 1.06-1 .3398917-.4133119.9311928-.515407 1.39-.24.7418967.4328087 1.5439893.7529717 2.38.95z" fill="#a0522d"/><path id="Shape" d="m18.38 17.73c-.4636128-.2628019-1.0496167-.148149-1.38.27-.1020949.1333209-.2123035.2602278-.33.38.3618228.1438856.7326019.2641383 1.11.36-1.91 9.37-1.72 9-2.12 9.28l-7.08 5.85-1.58 2.13c1 0 1.31-.07 1.69.27 10.8-9 10.22-8.36 10.31-8.86 1.79-8.8 1.77-8.6 1.77-8.7-.8411332-.2054897-1.6467391-.5358218-2.39-.98z" fill="#783e22"/><path id="Shape" d="m32 32v10.14c-1.3272564-.1800283-2.6727436-.1800283-4 0v-10.14c0-1.1045695.8954305-2 2-2s2 .8954305 2 2z" fill="#95a5a5"/><circle id="Oval" cx="30" cy="28" fill="#95a5a5" r="2"/><path id="Shape" d="m59 37v12c0 .5522847-.4477153 1-1 1h-7v-13c0-.5522847.4477153-1 1-1h6c.5522847 0 1 .4477153 1 1z" fill="#707070"/><path id="Shape" d="m56 37v12c0 .5522847-.4477153 1-1 1h-4v-13c0-.5522847.4477153-1 1-1h3c.5522847 0 1 .4477153 1 1z" fill="#9e9e9e"/><path id="Shape" d="m57 36h-4l-1.89-2.55c-.1559692-.3095182-.1405453-.6777279.0407631-.9731178.1813083-.29539.5026437-.4758333.8492369-.4768822h6c.3465932.0010489.6679286.1814922.8492369.4768822.1813084.2953899.1967323.6635996.0407631.9731178z" fill="#707070"/><path id="Shape" d="m59 28c0 2.209139-1.790861 4-4 4s-4-1.790861-4-4 1.790861-4 4-4 4 1.790861 4 4z" fill="#7f8e94"/><path id="Shape" d="m53.51 24.3c1.5004686.6163554 2.4801316 2.0778718 2.4801316 3.7s-.979663 3.0836446-2.4801316 3.7c1.6719471.6867945 3.5967277.1670078 4.6956653-1.2680637 1.0989375-1.4350714 1.0989375-3.4288012 0-4.8638726-1.0989376-1.4350715-3.0237182-1.9548582-4.6956653-1.2680637z" fill="#545c60"/><path id="Shape" d="m9 37v13h-7c-.55228475 0-1-.4477153-1-1v-12c0-.5522847.44771525-1 1-1h6c.55228475 0 1 .4477153 1 1z" fill="#707070"/><path id="Shape" d="m6 37v13h-4c-.55228475 0-1-.4477153-1-1v-12c0-.5522847.44771525-1 1-1h3c.55228475 0 1 .4477153 1 1z" fill="#9e9e9e"/><path id="Shape" d="m8.89 33.45-1.89 2.55h-4l-1.89-2.55c-.15596924-.3095182-.14054526-.6777279.04076307-.9731178.18130834-.29539.50264372-.4758333.84923693-.4768822h6c.34659321.0010489.66792859.1814922.84923693.4768822.18130833.2953899.19673232.6635996.04076307.9731178z" fill="#707070"/><path id="Shape" d="m9 28c.0040734 2.0125606-1.48779131 3.7147474-3.48350856 3.9746114-1.99571726.259864-3.87373243-1.003528-4.38517106-2.9500242-.51143863-1.9464961.50298388-3.9698713 2.36867962-4.7245872 1.23166098-.4982346 2.63033103-.3523962 3.73271496.3892075 1.10238394.7416037 1.76459594 1.982177 1.76728504 3.3107925z" fill="#7f8e94"/><path id="Shape" d="m3.51 24.3c1.50046863.6163554 2.48013158 2.0778718 2.48013158 3.7s-.97966295 3.0836446-2.48013158 3.7c1.67194709.6867945 3.59672772.1670078 4.69566526-1.2680637 1.09893754-1.4350714 1.09893754-3.4288012 0-4.8638726-1.09893754-1.4350715-3.02371817-1.9548582-4.69566526-1.2680637z" fill="#545c60"/><circle id="Oval" cx="5" cy="22" fill="#cfd8dc" r="2"/><path id="Shape" d="m36 10.56c-.0641558 1.2555586-.6297094 2.4327933-1.5697646 3.2675624-.9400553.834769-2.1758977 1.2571739-3.4302354 1.1724376-.3409963-.0209181-.669075.1336936-.87.41-2.1424775 2.9109058-5.8426499 4.2222088-9.34 3.31-.8422547-.2117501-1.6479142-.5488461-2.39-1-.4706107-.2724199-1.070367-.1524686-1.4.28-1.1095225 1.4981938-2.9604163 2.2546801-4.8016834 1.9625156s-3.3670703-1.584451-3.9583166-3.3525156c-.85-2.67.76-4.55 2.76-5.61.4111468-.2131341.6221638-.6806815.51-1.13-.3272842-.98504015-.4597462-2.02435794-.39-3.06.7552843-3.16398198 3.7731388-5.25061278 7-4.84.2301885.05110819.4710329.01923173.68-.09 1.3048401-.63860888 2.7485539-.94110129 4.2-.88 2.73 0 5.13 1 6.42 3.46.44.81.36 1.14.82 1.39s1.3 0 2.36.29c2.0196483.5089632 3.4261164 2.33737172 3.4 4.42z" fill="#ef314c"/><path id="Shape" d="m32.59 6.14c-1.06-.3-1.82 0-2.36-.29s-.38-.58-.82-1.39c-1.57-2.95-4.72-3.78-8-3.35 2.1186523.21959052 3.9910687 1.4741095 5 3.35.44.81.36 1.14.82 1.39s1.3 0 2.36.29c2.0236244.5050525 3.434994 2.33445234 3.41 4.42-.0641558 1.2555586-.6297094 2.4327933-1.5697646 3.2675624-.9400553.834769-2.1758977 1.2571739-3.4302354 1.1724376-.3409963-.0209181-.669075.1336936-.87.41-1.345212 1.8144123-3.3286588 3.0509395-5.55 3.46 3.2737627.5451132 6.5767098-.791518 8.55-3.46.200925-.2763064.5290037-.4309181.87-.41 1.2543377.0847363 2.4901801-.3376686 3.4302354-1.1724376.9400552-.8347691 1.5056088-2.0120038 1.5697646-3.2675624.024994-2.08554766-1.3863756-3.9149475-3.41-4.42z" fill="#bb193b"/><path id="Shape" d="m57 22c-.0020612.8524115-.544168 1.6098401-1.3503616 1.886718-.8061937.276878-1.6992797.0123498-2.2246341-.6589269s-.5675087-1.6017608-.1050043-2.3177911c.4815915-.7455801 1.39696-1.0845609 2.2480051-.832485.8510451.2520758 1.4341412 1.0348953 1.4319949 1.922485z" fill="#cfd8dc"/><path id="Shape" d="m51.91 10.52c-.3504318 1.6621348-1.5207739 3.032664-3.1075229 3.639065-1.5867491.6064009-3.3728407.3657189-4.7424771-.639065-.3266718-.2068639-.7433282-.2068639-1.07 0l-.4.25c-.05 0-.12.09-.34.18-2.3232521 1.0463674-5.0396587.6777122-7-.95.8228976-1.2028114 1.0031265-2.7328732.4822369-4.09397187-.5208897-1.36109867-1.6765678-2.37991163-3.0922369-2.72602813-.6599996-.11729632-1.3297466-.17087608-2-.16-.1753305-.03647213-.3376496-.11935852-.47-.24-.54-2.58 2.49-3.92 4.38-2.84.1438299.052576.2974194.0730546.45.06.2130079.00873813.4232339-.05082589.6-.17 1.4028772-1.08212708 3.1876587-1.54264382 4.938971-1.27437377 1.7513122.26827005 3.3164036 1.24192806 4.331029 2.69437377.2318685.30930059.6212381.45726101 1 .38 1.6639584-.39173102 3.4127237.0937741 4.636587 1.2872435 1.2238634 1.19346941 1.7531838 2.92947494 1.403413 4.6027565z" fill="#ef314c"/><path id="Shape" d="m45.85 4.66c-.3787619.07726101-.7681315-.07069941-1-.38-1.5316486-2.19216827-4.2511286-3.22040962-6.85-2.59 1.5491974.36262823 2.9096984 1.28506212 3.82 2.59.2318685.30930059.6212381.45726101 1 .38 1.6606755-.39619404 3.4087162.08234856 4.6360298 1.26915685 1.2273137 1.18680829 1.7642295 2.91781106 1.4239702 4.59084315-.3581609 1.7797944-1.6636956 3.2197224-3.4 3.75 2.0184801.6541124 4.2299955-.0369946 5.5168554-1.7240383s1.3687832-4.00258204.2043662-5.77635146c-1.164417-1.77376943-3.3215615-2.61943877-5.3812216-2.10961024z" fill="#bb193b"/><path id="Shape" d="m41.57 14.18c.23-.08.46-.17.68-.27-.2205388.1047266-.4476901.1949191-.68.27z" fill="#bb193b"/><path id="Shape" d="m42.59 13.73-.12.05c.06-.01.08-.04.12-.05z" fill="#bb193b"/></g><g id="Layer_5" fill="#000" transform="translate(-1 -1)"><path id="Shape" d="m19.26 8.7c.4195926-.42942363.9946146-.67151516 1.595-.67151516s1.1754074.24209153 1.595.67151516c.2549469.27266033.6405333.38062452 1 .28 1.0574222-.28206768 2.185777-.01126253 3 .72.7501537.8363837 1.0216402 1.9977424.72 3.08-.0826857.3063299-.015089.6337228.1821587.882255.1972478.2485322.5007376.3887082.8178413.377745.4648688.0159235.8793359-.2907821 1-.74.4730032-1.7690175.004785-3.65699393-1.24-5-1.1767257-1.11706636-2.809603-1.61692676-4.41-1.35-1.7079952-1.37367367-4.1869953-1.19473177-5.68.41-.339223.23001191-.5037524.64373028-.4151376 1.04388668.0886149.4001564.4124319.7057302.8170493.77101827.4046173.06528807.8081112-.12292863 1.0180883-.47490495z"/><path id="Shape" d="m40.72 9.11c-.0745584.55228475.3127153 1.0604415.865 1.135.5522847.0745584 1.0604416-.31271526 1.135-.865.1648296-1.10231014-.2067503-2.21704963-1-3-.1877666-.18931265-.4433625-.29579832-.71-.29579832s-.5222334.10648567-.71.29579832c-.3877236.39003745-.3877236 1.01996255 0 1.41.3454646.34604444.5019802.83795041.42 1.32z"/><path id="Shape" d="m58.48 24.69c.516981-.7683239.6501488-1.732343.3608234-2.6120486s-.9687113-1.5764848-1.8408234-1.8879514v-3.19c0-.5522847-.4477153-1-1-1s-1 .4477153-1 1v3.18c-.3111521.1115305-.6017338.2737156-.86.48l-4.69-2.55-.25-1.71c2.6697224-.5533219 4.6307363-2.8370963 4.7740358-5.5597876.1432995-2.72269127-1.5671468-5.19970043-4.1640358-6.0302124-1.0198785-.34723754-2.1202071-.38205806-3.16-.1-1.16882-1.66095158-2.9590254-2.77932463-4.9643261-3.10130248-2.0053006-.32197785-4.0556342.17974528-5.6856739 1.39130248-1.7727807-.94971375-3.9700058-.5094301-5.24 1.05-1.6007719-2.08408261-4.138196-3.22892632-6.76-3.05-1.6050578-.04987667-3.1979708.29342354-4.64 1-3.7884308-.55641686-7.3693782 1.88889592-8.23 5.62-.1003905 1.18165316.0355882 2.3714671.4 3.5-7.09 3.73-2.3 12.41 4.08 10.65l-.61 3.36-4.27 2.33c-.383743-1.168662-1.18480778-2.1548617-2.25-2.77.51698104-.7683239.65014879-1.732343.36082341-2.6120486-.28932539-.8797056-.96871126-1.5764848-1.84082341-1.8879514v-3.19c0-.5522847-.44771525-1-1-1s-1 .4477153-1 1v3.18c-.87211215.3114666-1.55149802 1.0082458-1.84082341 1.8879514-.28932538.8797056-.15615763 1.8437247.36082341 2.6120486-1.29062188.7231162-2.18922874 1.9865905-2.44875579 3.4430409-.25952705 1.4564503.14734715 2.9525502 1.10875579 4.0769591-.49744797.2177242-.88498466.6283576-1.07357934 1.1375632-.18859467.5092056-.16203428 1.0732083.07357934 1.5624368l1 1.3c-.71016952.3191661-1.17056459 1.0214637-1.18 1.8v17c0 1.1045695.8954305 2 2 2h13.1c.4752686 2.3283313 2.5236569 4.000485 4.9 4h20c2.3763431.000485 4.4247314-1.6716687 4.9-4h13.1c1.1045695 0 2-.8954305 2-2v-17c-.0019637-.7775239-.4543749-1.4834414-1.16-1.81l.86-1.15c.2938071-.4878321.3657216-1.0777793.1977102-1.621907s-.5600141-.9908303-1.0777102-1.228093c.9538488-1.1237245 1.3560783-2.6146827 1.0968345-4.0656744-.2592439-1.4509917-1.1528762-2.7104226-2.4368345-3.4343256zm-.98 11.31h-3l-1.5-2h6zm-41.43 14c.2323137-1.6756581.9246168-3.2541092 2-4.56l1.93 1.95c-.4707266.8031735-.783035 1.6891788-.92 2.61zm-13.07-16h6l-1.5 2h-3zm28-6c.5522847 0 1 .4477153 1 1s-.4477153 1-1 1-1-.4477153-1-1 .4477153-1 1-1zm-1 5c0-.5522847.4477153-1 1-1s1 .4477153 1 1v1c-.77 0-1.27 0-2 0zm2 3v2c-.6655394-.0548271-1.3344606-.0548271-2 0v-2c.6669817-.0331556 1.3355083-.0164425 2 .05zm12 6.6c-.8818662-.7680566-1.8441137-1.4386124-2.87-2l1.12-2c1.2337154.6317776 2.3968963 1.3927057 3.47 2.27zm-5 1.7 1.16-2c.8668443.4807324 1.6812411 1.050475 2.43 1.7l-1.81 1.81c-.5389193-.5641703-1.1355151-1.0702712-1.78-1.51zm-17.76 1.49-1.79-1.79c.75942-.6554399 1.5836812-1.2317526 2.46-1.72l1.14 2c-.6572492.4349415-1.2642857.9413643-1.81 1.51zm3.57-2.48-1.09-1.91c1.3748104-.5595606 2.8117204-.9523607 4.28-1.17v2.07c-1.0998869.207928-2.1708676.5470159-3.19 1.01zm5.19-3.31c.6659051-.0450661 1.3340949-.0450661 2 0v2c-.6659071-.0450051-1.3340929-.0450051-2 0zm4 .19c1.4869081.2111568 2.941545.6075705 4.33 1.18l-1.1 1.92c-1.0351739-.4549761-2.1188351-.790475-3.23-1zm5.33-.56c-1.7055004-.7065879-3.4982033-1.1808302-5.33-1.41v-2c2.1978047.2371038 4.3537713.7685277 6.41 1.58zm-11.33-1.41c-1.8172846.2432676-3.5933575.7310149-5.28 1.45l-1.09-1.91c2.044329-.8034571 4.1864469-1.3314202 6.37-1.57zm-8.2.36 1.13 2c-1.0250731.5626993-1.9871849 1.2331604-2.87 2l-1.75-1.74c1.0808366-.8736696 2.2506113-1.6311742 3.49-2.26zm-5 3.63 1.84 1.84c-1.4548382 1.6902031-2.3615793 3.7826826-2.6 6h-3c.3082453-2.9759588 1.6492282-5.7499181 3.79-7.84zm24.39 4.79h-16.39c4.01-4 12.4-4 16.39 0zm3.73 3c-.142985-.9098743-.4550252-1.7849437-.92-2.58l2-2c1.0856719 1.3072436 1.7790753 2.8951375 2 4.58zm5.08 0c-.2412633-2.2184408-1.1515432-4.3110383-2.61-6l1.82-1.82c2.1108782 2.0953058 3.4261976 4.8603052 3.72 7.82zm3-12v5.93c-3.08-5.18-9.43-9-17-9.77 0-1.25.12-2.16-.78-3.16.6591866-.7433804.9075694-1.7649031.6633018-2.7279581-.2442675-.9630549-.9494967-1.7427051-1.8833018-2.0820419v-2.19c0-.5522847-.4477153-1-1-1s-1 .4477153-1 1v2.18c-.937489.3381457-1.6458541 1.1197758-1.8903959 2.0859164-.2445418.9661405.0066675 1.9906504.6703959 2.7340836-.9 1-.78 1.94-.78 3.17-7.57.79-13.92 4.58-17 9.76 0-6.45 0-6-.06-6.4l9.33-7.74c.376351-.2936163.6352778-.7121556.73-1.18l1.57-7.71c2.5022822.37832 5.0533955-.2352389 7.11-1.71.8057764 1.2441367 2.2334923 1.9406773 3.71 1.81 2.8507623 2.6678906 7.2727478 2.698357 10.16.07.0271032.6569607.3150289 1.2760011.8 1.72l6.7 5.71c-.0259048.1656132-.0425971.3325366-.05.5.0084691 1.1685546.4259734 2.2972315 1.18 3.19-.497448.2177242-.8849847.6283576-1.0735793 1.1375632-.1885947.5092056-.1620343 1.0732083.0735793 1.5624368l.95 1.3c-.6939325.3352304-1.1335177 1.0393449-1.13 1.81zm-14.63-22.68c1.8246345 1.1607242 4.0552955 1.4949601 6.14.92l.49 2.38c-.9415296 1.3825339-2.4638779 2.2582865-4.1323327 2.3771834s-3.2996042-.5321321-4.4276673-1.7671834c-.2527515-.2762623-.6386614-.3881762-1-.29-.9280979.2274791-1.8874651-.2333523-2.29-1.1.24-.27.47-.54.69-.84 1.6859475.1507652 3.3500479-.4663847 4.53-1.68zm19.63 16.68c-1.6568542 0-3-1.3431458-3-3s1.3431458-3 3-3 3 1.3431458 3 3-1.3431458 3-3 3zm0-8c-.5522847 0-1-.4477153-1-1s.4477153-1 1-1 1 .4477153 1 1-.4477153 1-1 1zm-2.93-1.64c-.1737428.80233-.0111068 1.6408089.45 2.32-.730527.4206736-1.3428343 1.0192212-1.78 1.74l-6.12-5.22c-1.39-6.48-1.28-5.77-1.15-5.86.7982867.5921573 1.734499.9707725 2.72 1.1l.29 2c.0759748.6228916.4485424 1.1705661 1 1.47zm-18.07-17.59c.6868377.40244159 1.5469454.35923983 2.19-.11 1.1844885-.90554867 2.6868195-1.28936774 4.1605088-1.06293659 1.4736894.22643114 2.7914954 1.04356192 3.6494912 2.26293659.4744788.65281424 1.2948149.95649638 2.08.77.6967108-.17375103 1.4284459-.14600753 2.11.08 1.2845638.39992771 2.2820315 1.4188309 2.6545603 2.71160645s.0702102 2.68622775-.8045603 3.70839355c-1.379583 1.5454654-3.6999247 1.8080644-5.39.61-.651364-.4641765-1.5166426-.4956412-2.2-.08-1.8260696 1.1041417-4.1139304 1.1041417-5.94 0 .7325053-1.6893089.5676694-3.6335658-.4387789-5.17544459-1.0064483-1.54187882-2.7199601-2.47525061-4.5612211-2.48455541h-.51c.1-1.16 1.83-1.88 3-1.23zm-22.16 15.08c-2.71-.75-4.52-4.79-.39-7 .8145758-.4326285 1.2276623-1.3662042 1-2.26-.2730025-.83507027-.3949106-1.71213099-.36-2.59.6710346-2.638818 3.2108079-4.35778473 5.91-4 1.44.29 1.53-1 5-1 4 0 5.38 2.3 5.87 3.67.281709.79240192 1.029034 1.32392183 1.87 1.33h.75c1.2939368.01390996 2.4752694.73862483 3.0739788 1.8858009.5987094 1.1471761.5176733 2.5307192-.2108663 3.6001564s-1.9863995 1.6512851-3.2731125 1.5140427c-.6904533-.054697-1.3600564.2517315-1.77.81-2.4183069 3.2704177-6.9283849 4.1629019-10.41 2.06-.9048327-.5254525-2.0580736-.3084219-2.71.51-.9963722 1.356318-2.7351398 1.9439016-4.35 1.47zm3.07 7c.5617792-.2711475.9648754-.7888857 1.09-1.4l.86-4.82c1.75-1.41.08-1.21 2.76-.24l-1.62 7.85c-10.21 8.47-8.47 7.08-8.21 6.66.2356136-.4892285.262174-1.0532312.0735793-1.5624368-.1885946-.5092056-.5761313-.919839-1.0735793-1.1375632.6107703-.7323355.9993808-1.6240578 1.12-2.57zm-10.91-3.85c0-.5522847.44771525-1 1-1s1 .4477153 1 1-.44771525 1-1 1-1-.4477153-1-1zm1 3c1.65685425 0 3 1.3431458 3 3s-1.34314575 3-3 3-3-1.3431458-3-3 1.34314575-3 3-3zm-3 24v-12h6v12zm0 2h16v3h-16zm38 7h-20c-1.2645801-.0077761-2.3884892-.8077114-2.81-2h.81c1.1045695 0 2-.8954305 2-2 0-4-.14-4.68.42-6h19.16c.2762015.6306409.4191877 1.3115274.42 2v4c0 1.1045695.8954305 2 2 2h.82c-.4227483 1.1957287-1.5517451 1.9964356-2.82 2zm2-4v-3h16v3zm16-17v12h-6v-12z"/></g></g></svg>