<svg id="Layer_1" enable-background="new 0 0 512.005 512.005" height="512" viewBox="0 0 512.005 512.005" width="512" xmlns="http://www.w3.org/2000/svg"><g><g><g><path d="m7.505 356.962h458.5l-175.037 147.54h-283.463z" fill="#56b6de"/><path d="m504.505 252.575h-384.788v47.687h384.788" fill="#e89e72"/><g><path d="m504.187 105.298h-33.51l-11.706 17.026h-83.562v-35.237l-13.987-19.222-14.493 19.222v35.237h-90.295v51.304h247.553z" fill="#dbdbdb"/><g fill="#cfcfcf"><path d="m375.409 87.087-13.987-19.222-14.493 19.222v35.237h28.48z"/><path d="m470.677 105.298-6.49 9.44v58.89h40v-68.33z"/></g><path d="m504.187 173.628h-102.094v-23.667h-26.164v23.667h-53.131v-23.667h-26.164v23.667h-74.296v35.344l-43.007.166v43.437h324.856z" fill="#f2f2f2"/><g><path d="m464.187 173.628h40v78.947h-40z" fill="#ebebeb"/></g></g><path d="m504.505 300.262h-394.415c-7.956 0-15.586 3.16-21.212 8.786l-15.689 15.688h-21.03c-7.956 0-15.587 3.16-21.213 8.786l-23.441 23.44h194.305l37.98 28.276c5.178 3.855 11.46 5.937 17.915 5.937h70.977l-26.844 26.842c-5.589 5.588-13.156 8.745-21.059 8.786l-73.43.374c-7.903.04-15.471 3.198-21.06 8.786l-22.284 22.283h62.111l64.852 46.257h213.537z" fill="#ffd9bb"/><g fill="#c5713f"><path d="m119.717 252.575h28.791v47.687h-28.791z"/><path d="m286.716 252.575h28.791v47.687h-28.791z"/><path d="m453.714 300.262v-47.687h28.791v47.687z"/></g></g></g><g><path d="m428.549 211.647v9.35c.344 9.931 14.659 9.923 15 0v-9.35c-.344-9.931-14.659-9.923-15 0z"/><path d="m463.903 211.647v9.35c.344 9.931 14.659 9.923 15 0v-9.35c-.345-9.931-14.66-9.923-15 0z"/><path d="m393.196 211.647v9.35c.344 9.931 14.659 9.923 15 0v-9.35c-.345-9.931-14.66-9.923-15 0z"/><path d="m357.842 211.647v9.35c.344 9.931 14.659 9.923 15 0v-9.35c-.344-9.931-14.659-9.923-15 0z"/><path d="m322.488 211.647v9.35c.344 9.931 14.659 9.923 15 0v-9.35c-.344-9.931-14.659-9.923-15 0z"/><path d="m294.635 204.147c-4.142 0-7.5 3.358-7.5 7.5v9.35c.344 9.931 14.659 9.923 15 0v-9.35c0-4.142-3.358-7.5-7.5-7.5z"/><path d="m251.781 211.647v9.35c.344 9.931 14.659 9.923 15 0v-9.35c-.344-9.931-14.659-9.923-15 0z"/><path d="m504.505 497.002h-46.675c-9.931.344-9.923 14.659 0 15h46.675c9.931-.344 9.923-14.659 0-15z"/><path d="m504.505 292.762h-14.5v-32.688h14.5c4.142 0 7.5-3.358 7.5-7.5s-3.358-7.5-7.5-7.5h-259.5c-4.142 0-7.5 3.358-7.5 7.5s3.358 7.5 7.5 7.5h34.211v32.688h-123.208v-32.688h47.559c9.925-.342 9.928-14.658 0-15h-16.735v-28.465l35.536-.137c4.131-.016 7.471-3.369 7.471-7.5v-27.845h66.795c4.142 0 7.5-3.358 7.5-7.5v-16.167h11.164v16.167c0 4.142 3.358 7.5 7.5 7.5h53.131c4.142 0 7.5-3.358 7.5-7.5v-16.167h11.164v16.167c0 4.142 3.358 7.5 7.5 7.5h102.094c9.899-.33 9.952-14.65 0-15h-94.594v-16.167c0-4.142-3.358-7.5-7.5-7.5h-26.164c-4.142 0-7.5 3.358-7.5 7.5v16.167h-38.131v-16.167c0-4.142-3.358-7.5-7.5-7.5h-26.164c-4.142 0-7.5 3.358-7.5 7.5v16.167h-25v-36.304h82.795c4.142 0 7.5-3.358 7.5-7.5v-32.725l6.886-9.133 6.594 9.062v32.797c0 4.142 3.358 7.5 7.5 7.5h83.562c2.47 0 4.781-1.216 6.18-3.251l9.471-13.775h29.564c9.922-.34 9.931-14.656 0-15h-33.51c-2.47 0-4.781 1.216-6.18 3.251l-9.471 13.775h-72.117v-27.737c0-1.586-.502-3.131-1.436-4.413l-13.987-19.222c-3.983-4.081-8.001-4.115-12.053-.102l-14.492 19.222c-.98 1.301-1.511 2.886-1.511 4.515v27.737h-82.795c-4.142 0-7.5 3.358-7.5 7.5v43.804h-26.795c-4.142 0-7.5 3.358-7.5 7.5v27.874l-35.536.137c-4.131.016-7.471 3.369-7.471 7.5v35.937h-52.114c-4.142 0-7.5 3.358-7.5 7.5v40.188c-18.743-.456-30.04 12.38-42.135 24.473-17.105.188-30.994-2.393-44.44 10.983l-23.441 23.44c-5.068 5.068-.58 12.803 5.303 12.803h191.819l35.986 26.792c6.428 4.785 14.381 7.42 22.394 7.42h52.87l-14.04 14.039c-4.219 4.219-9.828 6.559-15.794 6.589l-73.43.375c-9.944.05-19.293 3.951-26.325 10.982l-22.284 22.283c-5.069 5.068-.579 12.803 5.303 12.803h59.71l43.823 31.257h-260.032c-9.776.293-10.082 14.583 0 15h411c9.797-.303 10.064-14.588 0-15h-125.136l-62.898-44.863c-1.271-.907-2.793-1.394-4.355-1.394h-44.004l9.48-9.479c4.219-4.219 9.828-6.559 15.794-6.589l73.43-.375c9.944-.05 19.293-3.951 26.325-10.982l26.844-26.842c5.068-5.068.58-12.804-5.303-12.804h-70.977c-4.808 0-9.58-1.582-13.437-4.452l-37.979-28.276c-1.294-.964-2.865-1.484-4.479-1.484h-176.198l10.637-10.637c4.25-4.25 9.899-6.59 15.909-6.59h74.18c9.914-.336 9.939-14.654 0-15h-35.042c4.621-5.582 11.386-9.473 18.793-9.473h394.415c9.84-.321 10.027-14.603.001-15.001zm-29.5 0h-13.791v-32.688h13.791zm-28.79 0h-123.208v-32.688h123.208zm-151.999-32.687h13.791v32.688h-13.791zm-166.999 0h13.791v32.688h-13.791z"/><path d="m504.187 407.161c9.931-.344 9.923-14.659 0-15h-28.203c-1.989 0-3.897.79-5.303 2.197l-35.782 35.783h-42.067c-1.989 0-3.897.79-5.303 2.197l-32.793 32.793h-36.763c-9.931.344-9.923 14.659 0 15h39.87c1.989 0 3.897-.79 5.303-2.197l32.793-32.793h42.067c1.989 0 3.897-.79 5.303-2.197l35.782-35.783z"/><path d="m427.005 342.016c9.931-.344 9.923-14.659 0-15h-37c-9.931.344-9.923 14.659 0 15z"/><path d="m341.005 346.016h-78c-9.931.344-9.923 14.659 0 15h78c9.931-.344 9.923-14.659 0-15z"/><path d="m126.162 399.661c0-4.142-3.358-7.5-7.5-7.5h-83.498c-9.931.344-9.923 14.659 0 15h83.498c4.142 0 7.5-3.358 7.5-7.5z"/><path d="m174.113 407.161c9.931-.344 9.923-14.659 0-15h-18.859c-9.931.344-9.923 14.659 0 15z"/><path d="m67.299 428.645c-9.931.344-9.923 14.659 0 15h18.859c9.931-.344 9.923-14.659 0-15z"/><path d="m45.861 124.312c3.535 2.929 7.071 2.929 10.606 0l14.674-14.673c2.929-2.929 2.929-7.677 0-10.606-2.928-2.93-7.677-2.929-10.606 0l-9.371 9.37-9.704-9.703c-7.265-6.78-17.383 3.35-10.606 10.606z"/><path d="m110.324 163.544c3.535 2.929 7.071 2.929 10.606 0l14.674-14.674c2.929-2.929 2.929-7.678 0-10.606-2.929-2.929-7.678-2.929-10.606 0l-9.371 9.371-9.703-9.703c-2.929-2.929-7.678-2.929-10.606 0-2.929 2.929-2.929 7.678 0 10.606z"/><path d="m236.689 27.812c3.535 2.929 7.071 2.929 10.606 0l14.674-14.673c2.929-2.929 2.929-7.677 0-10.606-2.929-2.929-7.678-2.929-10.606 0l-9.371 9.37-9.703-9.703c-2.929-2.929-7.678-2.929-10.606 0-2.929 2.929-2.929 7.678 0 10.606z"/><path d="m403.572 60.249c3.535 2.929 7.071 2.929 10.606 0l14.674-14.674c2.929-2.929 2.929-7.678 0-10.606-2.929-2.929-7.678-2.929-10.606 0l-9.371 9.371-9.703-9.703c-2.929-2.929-7.678-2.929-10.606 0-2.929 2.929-2.929 7.678 0 10.606z"/></g></g></svg>