<svg height="512pt" viewBox="0 -27 512.00002 512" width="512pt" xmlns="http://www.w3.org/2000/svg"><path d="m428.042969 131.164062c.074219-.082031.148437-.160156.222656-.242187.03125.082031.070313.160156.101563.242187h37.738281c4.671875 0 8.578125-3.710937 8.632812-8.378906.003907-.089844.003907-.175781.003907-.261718.011718-13.125-10.875-24.027344-24-24.027344-4.710938 0-9.101563 1.363281-12.808594 3.707031-1.222656-21.300781-18.882813-38.203125-40.492188-38.203125-21.320312 0-38.785156 16.449219-40.429687 37.347656-3.644531-1.960937-7.851563-3.007812-12.320313-2.828125-11.765625.464844-21.636718 9.664063-22.886718 21.371094-.007813.089844-.015626.179687-.027344.265625-.566406 5.925781 4.226562 11.007812 10.179687 11.007812zm0 0" fill="#c9f3ff"/><path d="m156.433594 58c0 26.507812-21.492188 48-48 48-26.511719 0-48-21.492188-48-48s21.488281-48 48-48c26.507812 0 48 21.492188 48 48zm0 0" fill="#ffb954"/><path d="m209.75 160h92.5v40h-92.5zm0 0" fill="#898998"/><path d="m293.75 288h42.3125l-17.703125-40h-124.71875l-17.703125 40zm0 0" fill="#898998"/><path d="m219.25 200h73.5v48h-73.5zm0 0" fill="#b3b6c3"/><path d="m293.75 288h67.972656l17.277344 40h-246l17.277344-40zm0 0" fill="#b3b6c3"/><path d="m293.75 328h110.710938l15.539062 40h-328l15.539062-40h110.710938" fill="#898998"/><path d="m293.75 368h154.25l17.621094 40h-419.242188l17.621094-40zm0 0" fill="#b3b6c3"/><path d="m293.75 408h187.128906l21.121094 40h-492l21.121094-40zm0 0" fill="#898998"/><path d="m219.25 248h73.5v200h-73.5zm0 0" fill="#d8d8e4"/><path d="m161.332031 358c-2.632812 0-5.210937 1.070312-7.070312 2.929688-1.863281 1.859374-2.929688 4.441406-2.929688 7.070312s1.066407 5.210938 2.929688 7.070312c1.859375 1.859376 4.4375 2.929688 7.070312 2.929688 2.636719 0 5.207031-1.070312 7.066407-2.929688 1.871093-1.859374 2.933593-4.441406 2.933593-7.070312s-1.0625-5.210938-2.933593-7.070312c-1.859376-1.859376-4.4375-2.929688-7.066407-2.929688zm0 0"/><path d="m400.5 438c-2.628906 0-5.210938 1.070312-7.070312 2.929688-1.859376 1.859374-2.929688 4.441406-2.929688 7.070312s1.070312 5.210938 2.929688 7.070312c1.863281 1.859376 4.441406 2.929688 7.070312 2.929688s5.210938-1.070312 7.070312-2.929688c1.859376-1.859374 2.929688-4.441406 2.929688-7.070312s-1.070312-5.210938-2.929688-7.070312c-1.859374-1.859376-4.441406-2.929688-7.070312-2.929688zm0 0"/><path d="m510.84375 443.332031-21.121094-40c-1.730468-3.28125-5.136718-5.332031-8.84375-5.332031h-8.734375l-14.992187-34.03125c-1.597656-3.628906-5.1875-5.96875-9.152344-5.96875h-21.15625l-13.0625-33.621094c-1.492188-3.847656-5.195312-6.378906-9.320312-6.378906h-18.886719l-14.671875-33.964844c-1.582032-3.664062-5.1875-6.035156-9.179688-6.035156h-19.152344l-15.066406-34.046875c-1.601562-3.617187-5.1875-5.953125-9.144531-5.953125h-15.609375v-28.023438c5.289062-.261718 9.5-4.621093 9.5-9.976562v-40c0-5.523438-4.476562-10-10-10h-92.5c-5.523438 0-10 4.476562-10 10v40c0 5.355469 4.210938 9.714844 9.5 9.976562v28.023438h-15.609375c-3.960937 0-7.542969 2.335938-9.144531 5.953125l-15.066406 34.046875h-19.152344c-3.988282 0-7.597656 2.371094-9.179688 6.035156l-14.671875 33.964844h-18.886719c-4.125 0-7.828124 2.53125-9.320312 6.378906l-13.0625 33.621094h-21.15625c-3.964844 0-7.554688 2.339844-9.152344 5.96875l-14.992187 34.03125h-8.734375c-3.707032 0-7.109375 2.050781-8.84375 5.332031l-21.121094 40c-1.636719 3.097657-1.53125 6.828125.277344 9.832031 1.8125 3 5.0625 4.835938 8.566406 4.835938h208.25c.167969 0 .332031-.015625.5-.023438.167969.007813.332031.023438.5.023438h73.5c.167969 0 .332031-.015625.5-.023438.167969.007813.332031.023438.5.023438h68.582031c5.523438 0 10-4.476562 10-10s-4.476562-10-10-10h-59.582031v-20h172.101562l10.5625 20h-44.414062c-5.523438 0-10 4.476562-10 10s4.476562 10 10 10h61c3.503906 0 6.753906-1.835938 8.5625-4.835938 1.8125-3.003906 1.917969-6.734374.28125-9.832031zm-105.457031-85.332031h-102.636719v-20h94.867188zm-149.257813-140.335938c-5.523437 0-10 4.480469-10 10v10.335938h-16.878906v-28h53.5v28h-16.621094v-10.332031c0-5.523438-4.480468-10.003907-10-10.003907zm107.660156 100.335938h-61.039062v-20h52.398438zm-43.085937-40h-17.953125v-20h9.101562zm-100.953125-108h72.5v20h-72.5zm-19.601562 88h9.101562v20h-17.949219zm-43.296876 40h52.398438v20h-61.035156zm-86.332031 80h21.414063c.023437 0 .042968.003906.066406.003906s.050781-.003906.078125-.003906h31.589844c5.519531 0 10-4.476562 10-10s-4.480469-10-10-10h-17.054688l7.769531-20h94.867188v20h-9.25c-5.523438 0-10 4.476562-10 10s4.476562 10 10 10h9.25v20h-147.539062zm-33.371093 40h172.101562v20h-182.660156zm245.601562 20h-53.5v-180h53.5zm20-40v-20h138.730469l8.808593 20zm0 0"/><path d="m108.433594 116c31.980468 0 58-26.019531 58-58s-26.019532-58-58-58c-31.980469 0-58 26.019531-58 58s26.019531 58 58 58zm0-96c20.953125 0 38 17.046875 38 38s-17.046875 38-38 38-38-17.046875-38-38 17.046875-38 38-38zm0 0"/><path d="m331.957031 141.164062h96.085938.324219 37.738281c10.152343 0 18.511719-8.191406 18.632812-18.265624l.003907-.363282c.007812-9.019531-3.542969-17.550781-10-24.011718-6.457032-6.464844-14.980469-10.023438-24-10.023438-1.757813 0-3.5.132812-5.214844.398438-6.617188-20.335938-25.753906-34.898438-48.085938-34.898438-22.082031 0-41.273437 14.519531-47.996094 34.710938-1.703124-.191407-3.425781-.253907-5.148437-.183594-16.71875.664062-30.660156 13.691406-32.441406 30.378906l-.027344.296875c-.535156 5.570313 1.328125 11.152344 5.113281 15.316406 3.835938 4.222657 9.308594 6.644531 15.015625 6.644531zm-.207031-20.210937c.714844-6.710937 6.574219-12.175781 13.339844-12.441406 2.519531-.097657 5.003906.46875 7.1875 1.644531 2.976562 1.597656 6.5625 1.585938 9.527344-.03125 2.964843-1.617188 4.914062-4.625 5.179687-7.996094 1.238281-15.773437 14.617187-28.128906 30.457031-28.128906 16.179688 0 29.582032 12.640625 30.507813 28.777344.203125 3.539062 2.261719 6.703125 5.410156 8.324218 3.152344 1.617188 6.925781 1.449219 9.917969-.445312 2.234375-1.410156 4.8125-2.160156 7.464844-2.160156 3.671874 0 7.171874 1.480468 9.851562 4.160156 2.347656 2.351562 3.769531 5.328125 4.082031 8.507812h-34.214843c-.167969-.035156-.335938-.070312-.503907-.097656-1.3125-.226562-2.632812-.183594-3.890625.097656h-94.109375c-.117187 0-.1875-.0625-.21875-.097656zm0 0"/></svg>