<?xml version="1.0" encoding="iso-8859-1"?>
<!-- Generator: Adobe Illustrator 19.0.0, SVG Export Plug-In . SVG Version: 6.00 Build 0)  -->
<svg version="1.1" id="Capa_1" xmlns="http://www.w3.org/2000/svg" xmlns:xlink="http://www.w3.org/1999/xlink" x="0px" y="0px"
	 viewBox="0 0 512 512" style="enable-background:new 0 0 512 512;" xml:space="preserve">
<rect x="151" y="434.25" style="fill:#FDD844;" width="210" height="70"/>
<g>
	<rect x="166" y="289.25" style="fill:#FF5352;" width="180" height="145"/>
	<rect x="181" y="174.25" style="fill:#FF5352;" width="150" height="115"/>
</g>
<path style="fill:#D8D7DA;" d="M271,56.338V28.25h-30v28.088c-23.082,6.531-40,27.739-40,52.912v65h110v-65
	C311,84.077,294.082,62.869,271,56.338z"/>
<g>
	<path style="fill:#80D8FF;" d="M286,204.25L286,204.25c-8.284,0-15,6.716-15,15v40h30v-40C301,210.966,294.284,204.25,286,204.25z"
		/>
	<path style="fill:#80D8FF;" d="M226,204.25L226,204.25c-8.284,0-15,6.716-15,15v40h30v-40C241,210.966,234.284,204.25,226,204.25z"
		/>
	<path style="fill:#80D8FF;" d="M474.75,147.25c14.497,0,26.25-11.753,26.25-26.25s-11.753-26.25-26.25-26.25
		c-1.765,0-3.488,0.177-5.155,0.509C463.927,81.744,450.573,72.25,435,72.25c-12.207,0-23.047,5.836-29.895,14.866
		c-2.625-0.881-5.433-1.366-8.355-1.366c-13.746,0-25.017,10.568-26.149,24.022c-0.282-0.013-0.566-0.022-0.851-0.022
		c-10.355,0-18.75,8.395-18.75,18.75s8.395,18.75,18.75,18.75H474.75z"/>
	<path style="fill:#80D8FF;" d="M102,208.25c9.941,0,18-8.059,18-18s-8.059-18-18-18c-0.201,0-0.396,0.024-0.596,0.03
		c-2.768-13.708-14.88-24.03-29.404-24.03c-10.505,0-19.742,5.403-25.101,13.577c-2.645-1.003-5.502-1.577-8.499-1.577
		c-13.255,0-24,10.745-24,24s10.745,24,24,24H102z"/>
</g>
<circle style="fill:#FF5352;" cx="116" cy="69.25" r="35"/>
<g>
	<path style="fill:#81C784;" d="M481,374.25L481,374.25c11.046,0,20,8.954,20,20v61c0,11.046-8.954,20-20,20l0,0
		c-11.046,0-20-8.954-20-20v-61C461,383.204,469.954,374.25,481,374.25z"/>
	<path style="fill:#81C784;" d="M441,405.25L441,405.25c11.046,0,20,8.954,20,20v30c0,11.046-8.954,20-20,20l0,0
		c-11.046,0-20-8.954-20-20v-30C421,414.204,429.954,405.25,441,405.25z"/>
	<path style="fill:#81C784;" d="M31,374.25L31,374.25c-11.046,0-20,8.954-20,20v61c0,11.046,8.954,20,20,20l0,0
		c11.046,0,20-8.954,20-20v-61C51,383.204,42.046,374.25,31,374.25z"/>
	<path style="fill:#81C784;" d="M71,405.25L71,405.25c-11.046,0-20,8.954-20,20v30c0,11.046,8.954,20,20,20l0,0
		c11.046,0,20-8.954,20-20v-30C91,414.204,82.046,405.25,71,405.25z"/>
</g>
<rect x="151" y="484.25" style="fill:#FDAB08;" width="210" height="20"/>
<g>
	<rect x="166" y="414.25" style="fill:#F23030;" width="180" height="20"/>
	<rect x="181" y="269.25" style="fill:#F23030;" width="150" height="20"/>
</g>
<rect x="201" y="154.25" style="fill:#ACABB1;" width="110" height="20"/>
<g>
	<path style="fill:#40C4FF;" d="M286,204.25c-8.284,0-15,6.716-15,15v20c0-8.284,6.716-15,15-15s15,6.716,15,15v-20
		C301,210.966,294.284,204.25,286,204.25z"/>
	<path style="fill:#40C4FF;" d="M226,204.25c-8.284,0-15,6.716-15,15v20c0-8.284,6.716-15,15-15s15,6.716,15,15v-20
		C241,210.966,234.284,204.25,226,204.25z"/>
	<path style="fill:#40C4FF;" d="M474.75,127.25h-105c-6.674,0-12.519-3.498-15.841-8.75c-1.832,2.896-2.909,6.319-2.909,10
		c0,10.355,8.395,18.75,18.75,18.75h105c14.497,0,26.25-11.753,26.25-26.25c0-3.542-0.706-6.917-1.977-10
		C495.09,120.536,485.706,127.25,474.75,127.25z"/>
	<path style="fill:#40C4FF;" d="M102,188.25H38.4c-9.685,0-18.024-5.74-21.816-14c-1.398,3.045-2.184,6.43-2.184,10
		c0,13.255,10.745,24,24,24H102c9.941,0,18-8.059,18-18c0-3.701-1.12-7.139-3.035-10C113.735,185.073,108.24,188.25,102,188.25z"/>
</g>
<path style="fill:#F23030;" d="M116,84.25c-15.854,0-29.239-10.544-33.542-25C81.514,62.419,81,65.774,81,69.25
	c0,19.33,15.67,35,35,35s35-15.67,35-35c0-3.476-0.514-6.831-1.458-10C145.239,73.706,131.854,84.25,116,84.25z"/>
<g>
	<path style="fill:#4CAF50;" d="M481,455.25c-11.046,0-20-8.954-20-20v20c0,11.046,8.954,20,20,20s20-8.954,20-20v-20
		C501,446.296,492.046,455.25,481,455.25z"/>
	<path style="fill:#4CAF50;" d="M441,455.25c-11.046,0-20-8.954-20-20v20c0,11.046,8.954,20,20,20s20-8.954,20-20v-20
		C461,446.296,452.046,455.25,441,455.25z"/>
	<path style="fill:#4CAF50;" d="M31,455.25c-11.046,0-20-8.954-20-20v20c0,11.046,8.954,20,20,20s20-8.954,20-20v-20
		C51,446.296,42.046,455.25,31,455.25z"/>
	<path style="fill:#4CAF50;" d="M71,455.25c-11.046,0-20-8.954-20-20v20c0,11.046,8.954,20,20,20s20-8.954,20-20v-20
		C91,446.296,82.046,455.25,71,455.25z"/>
</g>
<path d="M488.5,496.75v-15.048c11.528-3.274,20-13.889,20-26.452v-61c0-15.163-12.336-27.5-27.5-27.5s-27.5,12.337-27.5,27.5v6.518
	c-3.753-1.924-8-3.018-12.5-3.018c-15.164,0-27.5,12.337-27.5,27.5v30c0,12.563,8.472,23.178,20,26.452v15.048h-65v-70h-15v-145h-15
	v-100H351v-15h-32.5v-50H331v-15h-12.96c-2.779-22.796-18.051-42.504-39.54-50.807V20.75h-16V0.25h-15v20.5h-14v30.193
	c-21.489,8.302-36.76,28.011-39.54,50.807H181v15h12.5v50H161v15h12.5v100h-15v145h-15v70h-65v-15.048
	c11.528-3.274,20-13.889,20-26.452v-30c0-15.163-12.336-27.5-27.5-27.5c-4.5,0-8.747,1.093-12.5,3.018v-6.518
	c0-15.163-12.336-27.5-27.5-27.5s-27.5,12.337-27.5,27.5v61c0,12.563,8.472,23.178,20,26.452v15.048H0v15h512v-15H488.5z
	 M18.5,455.25v-61c0-6.893,5.607-12.5,12.5-12.5s12.5,5.607,12.5,12.5v31v30c0,6.893-5.607,12.5-12.5,12.5S18.5,462.143,18.5,455.25
	z M63.5,496.75h-25v-15.048c4.84-1.375,9.139-4.042,12.5-7.607c3.361,3.565,7.66,6.232,12.5,7.607V496.75z M58.5,455.25v-30
	c0-6.893,5.607-12.5,12.5-12.5s12.5,5.607,12.5,12.5v30c0,6.893-5.607,12.5-12.5,12.5S58.5,462.143,58.5,455.25z M243.042,63.555
	l5.458-1.545V35.75h15v26.26l5.458,1.545c17.895,5.064,31.036,20.22,33.936,38.195h-93.788
	C212.006,83.775,225.147,68.618,243.042,63.555z M208.5,116.75h95v50h-95V116.75z M188.5,181.75h135v100h-135V181.75z M173.5,296.75
	h165v100h-165V296.75z M338.5,411.75v15h-15v-15H338.5z M278.5,411.75v15h-15v-15H278.5z M248.5,411.75v15h-15v-15H248.5z
	 M173.5,411.75h15v15h-15V411.75z M213.5,496.75h-55v-55h55V496.75z M218.5,426.75h-15v-15h15V426.75z M284,496.75h-55.5v-55H284
	V496.75z M293.5,411.75h15v15h-15V411.75z M353.5,496.75H299v-55h54.5V496.75z M428.5,455.25v-30c0-6.893,5.607-12.5,12.5-12.5
	s12.5,5.607,12.5,12.5v30c0,6.893-5.607,12.5-12.5,12.5S428.5,462.143,428.5,455.25z M473.5,496.75h-25v-15.048
	c4.84-1.375,9.139-4.042,12.5-7.607c3.361,3.565,7.66,6.232,12.5,7.607V496.75z M468.5,455.25v-30v-31c0-6.893,5.607-12.5,12.5-12.5
	s12.5,5.607,12.5,12.5v61c0,6.893-5.607,12.5-12.5,12.5S468.5,462.143,468.5,455.25z"/>
<path d="M286,196.75c-12.407,0-22.5,10.094-22.5,22.5v47.5h45v-47.5C308.5,206.844,298.407,196.75,286,196.75z M293.5,251.75h-15
	v-32.5c0-4.136,3.364-7.5,7.5-7.5s7.5,3.364,7.5,7.5V251.75z"/>
<path d="M226,196.75c-12.407,0-22.5,10.094-22.5,22.5v47.5h45v-47.5C248.5,206.844,238.407,196.75,226,196.75z M233.5,251.75h-15
	v-32.5c0-4.136,3.364-7.5,7.5-7.5s7.5,3.364,7.5,7.5V251.75z"/>
<path d="M369.75,154.75h105c18.61,0,33.75-15.141,33.75-33.75s-15.14-33.75-33.75-33.75c-0.254,0-0.509,0.003-0.763,0.009
	C466.021,73.423,451.267,64.75,435,64.75c-12.502,0-24.131,5.038-32.599,13.976c-1.863-0.316-3.751-0.476-5.651-0.476
	c-15.215,0-28.42,10.38-32.467,24.572C352.424,105.346,343.5,115.9,343.5,128.5C343.5,142.975,355.276,154.75,369.75,154.75z
	 M369.75,117.25c0.172,0,0.344,0.006,0.514,0.014l7.206,0.324l0.605-7.188c0.809-9.617,9.012-17.15,18.675-17.15
	c2.031,0,4.039,0.328,5.967,0.976l5.108,1.716l3.256-4.294C416.815,84.087,425.533,79.75,435,79.75
	c12.124,0,22.988,7.227,27.678,18.409l2.371,5.652l6.011-1.197c1.214-0.241,2.456-0.364,3.69-0.364
	c10.339,0,18.75,8.411,18.75,18.75s-8.411,18.75-18.75,18.75h-105c-6.203,0-11.25-5.047-11.25-11.25S363.547,117.25,369.75,117.25z"
	/>
<path d="M38.4,215.75H102c14.061,0,25.5-11.439,25.5-25.5c0-12.281-8.729-22.563-20.308-24.969
	C101.841,150.78,87.843,140.75,72,140.75c-10.795,0-20.9,4.596-27.963,12.517c-1.861-0.344-3.745-0.517-5.637-0.517
	c-17.369,0-31.5,14.131-31.5,31.5S21.031,215.75,38.4,215.75z M38.4,167.75c1.967,0,3.932,0.367,5.84,1.09l5.63,2.135l3.301-5.035
	c4.183-6.38,11.222-10.19,18.829-10.19c10.67,0,19.944,7.576,22.053,18.015l1.258,6.229l6.351-0.219
	c0.145-0.005,0.289-0.013,0.468-0.024c5.73,0.069,10.37,4.753,10.37,10.499c0,5.79-4.71,10.5-10.5,10.5H38.4
	c-9.098,0-16.5-7.402-16.5-16.5S29.302,167.75,38.4,167.75z"/>
<path d="M116,111.75c23.435,0,42.5-19.065,42.5-42.5s-19.065-42.5-42.5-42.5s-42.5,19.065-42.5,42.5S92.565,111.75,116,111.75z
	 M116,41.75c15.164,0,27.5,12.337,27.5,27.5s-12.336,27.5-27.5,27.5s-27.5-12.337-27.5-27.5S100.836,41.75,116,41.75z"/>
<g>
	<rect x="248.5" y="70.75" style="fill:#FFFFFF;" width="15" height="15"/>
	<rect x="248.5" y="325.25" style="fill:#FFFFFF;" width="15" height="45"/>
	<rect x="188.5" y="325.25" style="fill:#FFFFFF;" width="15" height="45"/>
	<rect x="218.5" y="310.25" style="fill:#FFFFFF;" width="15" height="75"/>
	<rect x="308.5" y="325.25" style="fill:#FFFFFF;" width="15" height="45"/>
	<rect x="278.5" y="310.25" style="fill:#FFFFFF;" width="15" height="75"/>
	<rect x="248.5" y="454.25" style="fill:#FFFFFF;" width="15" height="30"/>
	<rect x="178.5" y="454.25" style="fill:#FFFFFF;" width="15" height="30"/>
	<rect x="319.5" y="454.25" style="fill:#FFFFFF;" width="15" height="30"/>
	<path style="fill:#FFFFFF;" d="M456,124.75h-35v-15h35V124.75z M406,124.75h-15v-15h15V124.75z"/>
	<rect x="65" y="169.75" style="fill:#FFFFFF;" width="15" height="15"/>
	<path style="fill:#FFFFFF;" d="M288.5,158.25h-15v-11.5H253v-15h35.5V158.25z M238,146.75h-15v-15h15V146.75z"/>
</g>
<g>
</g>
<g>
</g>
<g>
</g>
<g>
</g>
<g>
</g>
<g>
</g>
<g>
</g>
<g>
</g>
<g>
</g>
<g>
</g>
<g>
</g>
<g>
</g>
<g>
</g>
<g>
</g>
<g>
</g>
</svg>
