<svg id="Capa_1" enable-background="new 0 0 512 512" height="512" viewBox="0 0 512 512" width="512" xmlns="http://www.w3.org/2000/svg"><g clip-rule="evenodd" fill-rule="evenodd"><path d="m430 436.001h-400-10c-5.5 0-10 4.499-10 10v30h492v-30c0-5.5-4.5-10-10-10h-10z" fill="#7dd9c2"/><path d="m30 406.001v30h400v-30c0-5.5-4.5-10-10-10h-10-50-310-10c-5.5 0-10 4.499-10 10z" fill="#7dd9c2"/><path d="m50 396.001h310v-30c0-5.5-4.5-10-10-10h-79.996-200.004-10c-5.5 0-10 4.5-10 10z" fill="#7dd9c2"/><path d="m70 356.001h200.004v-39.999-40.001h-40v19.999h-40.002v-19.999h-20-20v19.999h-40.001v-19.999h-40.001z" fill="#ddb9a3"/><path d="m270.004 316.002v39.999h79.996c5.5 0 10 4.499 10 10v30h50v-79.999h-79.994z" fill="#ddb9a3"/><path d="m270.004 316.002h60.002v-80.003h-40.002v-19.999h-40v19.999h-40.002v-40h-20-20v15.275 64.727h20v19.999h40.002v-19.999h40z" fill="#ddb9a3"/><path d="m330.006 235.999v80.003h79.994v79.999h10c5.5 0 10 4.499 10 10v30h51.999l-48.493-259.07-57.495-25.126-19.508-107.327-42-8.477-42 75.232-50.603 24.277-31.898 60.489h20v40h40.001v-19.999h40v19.999z" fill="#e0ef9b"/><path d="m170.002 276.001v-64.727l-63.724 20.795-16.277 43.932h20v19.999h40.001v-19.999z" fill="#e0ef9b"/></g><path d="m492 426.001h-1.699l-46.966-250.911c-.609-3.255-2.79-5.998-5.825-7.323l-52.614-22.993-18.554-102.085c-.732-4.029-3.847-7.204-7.86-8.014l-42-8.477c-5.412-1.093-10.688 2.41-11.781 7.824s2.41 10.688 7.824 11.781l35.353 7.135 18.295 100.657c.001.007.003.015.004.022l6.488 35.697c.878 4.83 5.087 8.214 9.827 8.214.593 0 1.196-.053 1.8-.163 5.434-.988 9.039-6.193 8.051-11.627l-3.136-17.254 35.445 15.49 45.303 242.027h-29.955v-20c0-11.028-8.972-20-20-20v-69.999c0-5.523-4.477-10-10-10h-69.995v-70.003c0-5.523-4.477-10-10-10h-30.001v-10c0-5.523-4.477-10-10-10h-40c-5.523 0-10 4.477-10 10v10h-20.001v-30c0-5.523-4.477-10-10-10h-3.421l22.623-42.902 47.625-22.848c4.979-2.389 7.08-8.362 4.69-13.342-2.389-4.98-8.364-7.08-13.342-4.69l-50.604 24.277c-1.935.928-3.519 2.454-4.52 4.352l-29.084 55.154h-13.968c-5.523 0-10 4.477-10 10v8.019l-56.826 18.544c-2.903.947-5.214 3.169-6.275 6.032l-13.86 37.406h-13.041c-5.523 0-10 4.477-10 10v70c-11.028 0-20 8.972-20 20v20c-11.028 0-20 8.972-20 20v20c-11.028 0-20 8.972-20 20v30c0 5.523 4.477 10 10 10h492c5.523 0 10-4.477 10-10v-30c0-11.028-8.972-20-20-20zm-92-40h-30v-20c0-11.028-8.972-20-20-20h-69.997v-19.999h119.997zm-149.996-140.002c5.523 0 10-4.477 10-10v-10h20v10c0 5.523 4.477 10 10 10h30.001v60.003h-40.001v-30.001c0-5.523-4.477-10-10-10h-40c-5.523 0-10 4.477-10 10v9.999h-20.001v-9.999c0-5.523-4.477-10-10-10h-10v-54.807c0-.029 0-.057 0-.086v-5.109h20v30c0 5.523 4.477 10 10 10zm-136.028-5.923 46.026-15.019v40.944h-10c-5.523 0-10 4.477-10 10v9.999h-20.001v-9.999c0-5.523-4.477-10-10-10h-5.631zm-33.976 45.925h20v9.999c0 5.523 4.477 10 10 10h40.001c5.523 0 10-4.477 10-10v-9.999h20v9.999c0 5.523 4.477 10 10 10h40.001c5.523 0 10-4.477 10-10v-9.999h20v60h-180.002zm-20 80h10l280-.001v20h-290zm-20 40h10l370-.001v20h-380zm452 59.999h-472v-20h10 462z"/><path d="m293.511 83.617c5.523 0 10-4.477 10-10s-4.477-10-10-10h-.007c-5.523 0-9.996 4.477-9.996 10s4.48 10 10.003 10z"/></svg>