<svg id="Layer_1" enable-background="new 0 0 512 512" height="512" viewBox="0 0 512 512" width="512" xmlns="http://www.w3.org/2000/svg"><g><path d="m371 422c0 40.043-15.076 65.609-37.607 81h-159.573c-25.099-15.391-42.82-40.957-42.82-81 0-105 36.739-157.45 36-159-10.019-21.002-42.198-30.341-54.531-33.572-10.738-2.814-20.881-5.472-29.491-8.701-8.898-3.337-15.695-9.88-19.655-18.921-5.318-12.142-5.323-28.437-.016-49.818 3.43-13.815 7.976-25.052 8.167-25.523 4.162-10.231 15.833-15.152 26.063-10.99 10.226 4.16 15.146 15.818 10.997 26.045-6.373 15.767-10.411 35.273-9.038 42.641 6.395 2.193 14.545 4.329 23.114 6.575 26.742 7.008 47.391 6.266 65.031 20.172-31.641-46.908-28.867-101.531-28.305-104.56 2.018-10.858 12.447-18.022 23.316-16.012 10.856 2.017 18.023 12.45 16.014 23.307-3.354 18.16 18.9 56.881 28.334 87.357 1.483 4.791 4.802 18.26 5.092 17.879 1.344-1.765-1.751-33.528 26.035-60.285 6.826-6.573 9.785-14.897 9.047-25.447-.584-8.341-3.32-14.737-3.348-14.797-4.611-10.036-.213-21.911 9.824-26.523 10.036-4.611 21.911-.213 26.523 9.824.591 1.286 5.805 13.017 6.902 28.703 1.571 22.453-9.484 39.099-21.203 57.053-8.872 13.593-6.252 41.61-6.252 41.61s11.237-12.26 23.38-15.017c17.012-3.863 43.889 2.196 60.203 4.662 7.956 1.202 15.472 2.338 20.797 2.338 4.452 0 18 0 18-38 0-11.046 8.954-20 20-20s20 8.954 20 20c0 20.025-3.388 36.587-10.069 49.224-9.812 18.556-26.834 28.776-47.931 28.776-8.331 0-17.29-1.354-26.774-2.787-31.451-4.753-41.727-3.316-45.864 3.968 29.797 24.879 59.638 76.819 59.638 159.819z" fill="#ffa96b"/><g fill="#e0ef9b"><path d="m316.625 47.667-8.632 1.631c-7.015-22.208-27.637-38.298-51.993-38.298-23.682 0-43.309 17.643-50.852 38.915-2.81-1.371-9.697-2.248-13.41-2.248-14.55 0-32.738 16.416-32.738 36.667s16.286 36.666 36.375 36.666h121.25c20.089 0 36.375-16.416 36.375-36.667s-16.286-36.666-36.375-36.666z"/><path d="m140 73-7.119 1.335c-5.786-18.17-22.793-31.335-42.881-31.335-19.532 0-35.719 14.435-41.94 31.839-2.318-1.121-7.998-1.839-11.06-1.839-12 0-27 13.431-27 30s13.431 30 30 30h100c16.569 0 30-13.431 30-30s-13.432-30-30-30z"/><path d="m472 161-7.119 1.335c-5.786-18.17-22.793-31.335-42.881-31.335-19.532 0-35.719 14.435-41.94 31.839-2.318-1.121-7.998-1.839-11.06-1.839-12 0-27 13.431-27 30s13.431 30 30 30h100c16.569 0 30-13.431 30-30s-13.432-30-30-30z"/></g><g><path d="m283.771 314.938c-5.005 2.335-7.169 8.286-4.833 13.29 2.541 5.447 6.062 15 6.062 18.772 0 5.522 4.478 10 10 10s10-4.478 10-10c0-9.726-6.612-24.389-7.938-27.229-2.335-5.004-8.286-7.172-13.291-4.833z"/><path d="m210.714 322.715c-5.126-2.052-10.947.442-12.999 5.571-.784 1.962-7.442 19.619.341 35.186 1.752 3.505 5.283 5.531 8.951 5.53 7.313-.001 12.195-7.958 8.938-14.474-3.208-6.416-.833-15.777.356-18.855 2.022-5.118-.473-10.912-5.587-12.958z"/><path d="m260.714 372.715c-5.126-2.052-10.947.442-12.999 5.571-.784 1.962-7.442 19.619.341 35.186 1.752 3.505 5.283 5.531 8.951 5.53 7.312-.001 12.196-7.956 8.937-14.474-3.208-6.416-.833-15.777.356-18.855 2.023-5.118-.472-10.912-5.586-12.958z"/><path d="m180.714 392.715c-5.125-2.051-10.947.442-12.999 5.571-.784 1.962-7.442 19.619.341 35.185 2.408 4.817 8.605 6.881 13.416 4.473 4.94-2.47 6.942-8.477 4.473-13.416-3.208-6.416-.833-15.777.356-18.855 2.022-5.118-.473-10.912-5.587-12.958z"/><path d="m310.653 438.207c1.134.508 2.374.796 3.677.796 3.968 0 7.724-2.379 9.288-6.289.784-1.962 7.442-19.619-.341-35.186-2.471-4.94-8.479-6.943-13.416-4.473-4.94 2.47-6.942 8.477-4.473 13.416 3.208 6.415.833 15.775-.356 18.854-1.913 4.954.956 10.79 5.621 12.882z"/><path d="m502 492h-143.114c4.15-5.152 7.736-10.763 10.724-16.82 7.561-15.3 11.4-33.52 11.391-54.18 0-.811 0-1.445-.01-2.245-.04-5.471-4.521-9.755-10-9.755h-.07c-5.448 0-9.971 4.476-9.93 9.895.01.76.01 1.433.01 2.193-.01 17.56-3.141 32.766-9.32 45.266-5.14 10.38-12.17 18.736-21.49 25.647h-19.191l4.231-10.154c2.124-5.098-.286-10.952-5.385-13.076-5.096-2.126-10.952.286-13.076 5.385l-7.437 17.844h-23.333v-14c0-5.522-4.478-10-10-10s-10 4.478-10 10v14h-23.334l-7.436-17.846c-2.123-5.101-7.981-7.511-13.076-5.385-5.099 2.124-7.509 7.979-5.385 13.076l4.231 10.155h-24.28c-10.72-7.03-19.14-15.84-25.03-26.19-7.18-12.67-10.67-27.33-10.689-44.81 0-41.8 5.88-80.25 17.47-114.28 3.043-8.936 6.491-17.512 10.258-25.548 6.335 6.847 14.322 12.818 23.357 15.493 7.504 2.222 19.425 2.379 19.905-8.211.251-5.518-4.018-10.193-9.535-10.443-15.759-.717-26.047-19.91-26.241-20.276-6.745-12.771-18.366-21.723-31.174-28.145-17.145-8.475-35.92-11.591-53.919-17.599-5.157-1.721-10.932 1.198-12.651 6.339-1.729 5.174 1.178 10.934 6.34 12.64 23.207 7.673 55.296 9.988 70.88 31.48l-.189.359c-3.101 5.95-12.53 24.05-20.54 52.11-9.273 32.4-13.962 68.091-13.962 106.081-.021 20.75 4.46 39.149 13.3 54.68 3.324 5.857 7.271 11.302 11.8 16.32h-136.1c-5.522 0-10 4.478-10 10s4.478 10 10 10h492c5.522 0 10-4.478 10-10s-4.478-10-10-10z"/><path d="m40 142h15.353c-.047.167-.095.331-.143.5-1.771 6.283 3.104 12.72 9.63 12.72 4.45 0 8.41-3 9.62-7.29.589-2.093 1.188-4.073 1.775-5.93h21.038c-2.024 5.638-3.797 11.619-5.203 17.569-1.89 8.131-2.819 14.7-2.84 20.08-.02 5.268 1.291 11 7.021 12.971 14.966 5.149 30.434 8.666 45.947 11.712 13.721 2.694 27.901 4.51 39.253 13.427 3.806 2.99 9.463 2.741 13-.53 3.565-3.298 4.189-8.906 1.48-12.92-18.254-26.924-24.162-57.275-26.047-75.77 1.195-1.344 2.311-2.76 3.319-4.257 5.115 2.817 10.807 4.702 16.855 5.4.524 2.208 1.161 4.563 1.953 7.166 6.976 22.597 18.46 43.514 25.44 66.11 1.688 5.462 2.467 11.35 4.556 16.651 1.797 4.559 4.887 8.27 10.084 8.27 10.063 0 10.086-11.21 11-18.5 2.24-17.89 9.43-32.48 21.97-44.58 9.361-9.032 13.18-21.901 11.945-34.8h20.09c.001.017.003.033.005.05.08 1.17.12 2.37.12 3.56-.01 7.841-1.75 15.101-5.63 23.511-4.963 10.758-12.996 19.839-17.201 30.86-5.001 13.108-6.389 27.06-4.389 40.919v.051c0 8.599 11.736 11.709 17.148 5.841 4.67-5.064 11.306-10.473 18.146-12.041 15.009-3.44 60.981 7.25 66.705 7.25h49.066c-3.754 5.931-8.45 10.64-14.017 14-14.587 8.805-32.435 5.75-48.331 3.319-14.009-2.103-31.395-5.815-45.08-.47-4.55 1.69-26.289 27.709-26.289 27.709-3.558 4.225-3.017 10.533 1.208 14.091 4.07 3.428 10.529 3.02 14.091-1.208l9.801-11.639c14.337 14.53 26.502 34.669 34.738 57.807 1.834 5.153 7.661 7.846 12.781 6.061 5.19-1.86 7.91-7.59 6.061-12.78-4.561-12.79-10.16-24.99-16.641-35.81-5.99-9.979-12.74-19.08-20.07-27.08h.08c29.579 0 60.427 13.486 87.94-3.09 11.923-7.184 20.804-18.187 26.213-30.91h28.449c22.056 0 40-17.944 40-40s-17.944-40-40-40c-.322 0-.646.016-.966.047-9.253-18.276-28-30.047-49.034-30.047-19.723 0-38.021 11.889-47.774 30.333-2.233-.251-4.158-.333-5.226-.333-17.11 0-37 17.473-37 40 0 4.545.772 8.91 2.175 12.985-5.998-.724-12.127-1.232-18.056-1.245-9.206.015-18.116 1.327-26.29 5.76.149-1.29.319-2.53.51-3.692 2.206-14.016 13.52-25.643 19.39-38.268 5.061-10.87 7.511-21.311 7.49-31.931 0-1.2-.039-2.413-.1-3.622 25.343-.269 45.88-21.089 45.88-46.654 0-25.731-20.804-46.666-46.375-46.666-1.563 0-2.369.271-2.369.271-10.595-22.411-33.022-36.938-58.255-36.938-23.601 0-45.469 14.647-56.74 37.242-3.242-.438-6.139-.575-7.522-.575-14.615 0-30.967 11.156-38.501 27.594-3.856-1.357-7.978-2.146-12.268-2.249-.322-.008-1.614.004-1.935.035-9.253-18.276-28-30.047-49.034-30.047-19.723 0-38.021 11.889-47.774 30.333-2.233-.251-4.158-.333-5.226-.333-17.11 0-37 17.473-37 40 0 22.056 17.944 40 40 40zm329.004 28c4.991.001 9.971 3.089 14.842 1.096 2.628-1.075 4.675-3.216 5.63-5.89 4.339-12.14 16.369-25.206 32.524-25.206 15.308 0 28.711 9.793 33.353 24.369 1.531 4.812 6.409 7.725 11.371 6.795l6.113-1.146c10.642.44 19.163 9.235 19.163 19.982 0 11.028-8.972 20-20 20h-100c-11.028 0-20-8.972-20-20 0-10.847 10.442-20 17.004-20zm-113.401-26.243c-1.724 4.169-4.822 6.88-7.896 10.156-7.168 7.637-13.03 16.467-17.227 26.066-2.359-6.02-4.899-12.09-7.37-17.97-4.348-10.348-8.999-21.101-12.266-32.01h46.034c1.589.015-.676 12.309-1.275 13.758zm-63.866-87.09c2.926 0 7.728.738 9.111 1.276 2.541 1.211 5.477 1.295 8.082.229 2.638-1.078 4.689-3.229 5.642-5.915 5.509-15.536 20.824-32.257 41.428-32.257 19.479 0 36.541 12.583 42.458 31.311 1.523 4.826 6.41 7.755 11.392 6.813l7.638-1.443c14.145.462 25.512 12.24 25.512 26.652 0 14.704-11.832 26.667-26.375 26.667h-121.25c-5.786 0-11.14-1.897-15.491-5.105.069-.957.116-1.921.116-2.895 0-10.007-3.703-19.16-9.799-26.182 3.535-11.063 14.15-19.151 21.536-19.151zm-27.107 131.743c-1.24-.32-2.51-.62-3.88-.931-4.55-1.02-46.7-10.33-51.291-11.67-2.306-.695 7.744-30.075 8.34-31.54.305-.749.574-1.506.815-2.27h21.386c3.876 0 7.617-.572 11.164-1.605 2.071 14.03 6.032 30.757 13.466 48.016zm-127.63-106.41c2.129 0 5.729.529 6.874.922 2.517 1.16 5.403 1.226 7.972.174 2.628-1.075 4.675-3.216 5.63-5.89 4.339-12.14 16.369-25.206 32.524-25.206 15.308 0 28.711 9.793 33.353 24.369 1.531 4.812 6.409 7.725 11.371 6.795l6.113-1.146c10.642.44 19.163 9.235 19.163 19.982 0 11.028-8.972 20-20 20h-100c-11.028 0-20-8.972-20-20 0-10.847 10.442-20 17-20z"/><circle cx="60" cy="190" r="10"/><circle cx="367" cy="374" r="10"/></g></g></svg>