<svg height="480pt" viewBox="0 0 480 480" width="480pt" xmlns="http://www.w3.org/2000/svg"><path d="m408 104c0-17.601562-14.398438-32-32-32s-32 14.398438-32 32c-8.800781 0-16 7.199219-16 16v16h96v-16c0-8.800781-7.199219-16-16-16zm0 0" fill="#b8eaee"/><path d="m328 408h32v64h-32zm0 0" fill="#428dc5"/><path d="m264 480h-32c-4.800781 0-8-3.199219-8-8v-112c0-4.800781 3.199219-8 8-8h32c4.800781 0 8 3.199219 8 8v112c0 4.800781-3.199219 8-8 8zm-24-16h16v-96h-16zm0 0"/><path d="m456 136c0-17.601562-14.398438-32-32-32s-32 14.398438-32 32c-8.800781 0-16 7.199219-16 16v16h96v-16c0-8.800781-7.199219-16-16-16zm0 0" fill="#c0f5f9"/><path d="m136 184c0-17.601562-14.398438-32-32-32s-32 14.398438-32 32c-8.800781 0-16 7.199219-16 16v16h96v-16c0-8.800781-7.199219-16-16-16zm0 0" fill="#c0f5f9"/><path d="m248 40-5.601562 24c-1.597657 5.601562-3.199219 11.199219-4.796876 16l-5.601562 16h32l-5.601562-16c-1.597657-5.601562-3.199219-10.398438-4.796876-16zm0 0" fill="#3775a4"/><path d="m184 216h48v176h-48zm0 0" fill="#4799cf"/><path d="m168 392h64v80h-64zm0 0" fill="#4faae6"/><path d="m136 408h32v64h-32zm0 0" fill="#428dc5"/><path d="m160 408h8v64h-8zm0 0" fill="#3e84b9"/><path d="m328 408h8v64h-8zm0 0" fill="#3e84b9"/><path d="m264 216h48v176h-48zm0 0" fill="#4799cf"/><path d="m264 392h64v80h-64zm0 0" fill="#4faae6"/><path d="m224 188v-56h48v56h-8v288h-32v-288zm0 0" fill="#3775a4"/><path d="m248 88c-4.800781 0-8-3.199219-8-8v-72c0-4.800781 3.199219-8 8-8s8 3.199219 8 8v72c0 4.800781-3.199219 8-8 8zm0 0" fill="#3775a4"/><path d="m232 96h32v40h-32zm0 0" fill="#3775a4"/><g fill="#428dc5"><path d="m192 416h16v16h-16zm0 0"/><path d="m192 448h16v24h-16zm0 0"/><path d="m288 416h16v16h-16zm0 0"/><path d="m288 448h16v24h-16zm0 0"/></g><path d="m408 376h64v96h-64zm0 0" fill="#d9d9d9"/><path d="m432 400h16v16h-16zm0 0" fill="#c3c3c3"/><path d="m432 432h16v16h-16zm0 0" fill="#c3c3c3"/><path d="m56 344h48v128h-48zm0 0" fill="#cdcdcd"/><path d="m8 280h48v192h-48zm0 0" fill="#c3c3c3"/><path d="m80 312-24 32h48zm0 0" fill="#c3c3c3"/><path d="m56 280-24-32-24 32zm0 0" fill="#b2b2b2"/><path d="m200 184h32v32h-32zm0 0" fill="#428dc5"/><path d="m264 184h32v32h-32zm0 0" fill="#428dc5"/><path d="m184 383.199219h48v8.800781h-48zm0 0" fill="#428dc5"/><path d="m264 383.199219h48v8.800781h-48zm0 0" fill="#428dc5"/><path d="m200 206.398438h32v9.601562h-32zm0 0" fill="#3f87bd"/><path d="m264 206.398438h32v9.601562h-32zm0 0" fill="#3f87bd"/><path d="m49.601562 344h6.398438v128h-6.398438zm0 0" fill="#b2b2b2"/><path d="m472 480h-464c-4.800781 0-8-3.199219-8-8s3.199219-8 8-8h464c4.800781 0 8 3.199219 8 8s-3.199219 8-8 8zm0 0" fill="#aeaeae"/><path d="m232 448h32v16h-32zm0 0" fill="#336d99"/><path d="m232 123.199219h32v8.800781h-32zm0 0" fill="#336d99"/><path d="m463.199219 128.800781c-3.199219-21.601562-24-36-45.597657-32.800781-.800781 0-1.601562 0-2.402343.800781-4-21.601562-24.800781-36-46.398438-32.800781-16.800781 3.199219-29.601562 16-32.800781 32.800781-9.601562 3.199219-16 12.800781-16 23.199219v16c0 4.800781 3.199219 8 8 8h41.601562c-.800781 2.398438-1.601562 5.601562-1.601562 8v16c0 4.800781 3.199219 8 8 8h96c4.800781 0 8-3.199219 8-8v-16c0-10.398438-6.398438-20-16.800781-23.199219zm-127.199219-.800781v-8c0-4.800781 3.199219-8 8-8s8-3.199219 8-8c0-13.601562 10.398438-24 24-24s24 10.398438 24 24c-8 5.601562-12.800781 14.398438-15.199219 24zm128 32h-80v-8c0-4.800781 3.199219-8 8-8s8-3.199219 8-8c0-13.601562 10.398438-24 24-24s24 10.398438 24 24c0 4.800781 3.199219 8 8 8s8 3.199219 8 8zm0 0"/><path d="m152 224c4.800781 0 8-3.199219 8-8v-16c0-10.398438-6.398438-20-16.800781-23.199219-4-21.601562-24.800781-36-46.398438-32.800781-16.800781 3.199219-29.601562 16-32.800781 32.800781-9.601562 3.199219-16 12.800781-16 23.199219v16c0 4.800781 3.199219 8 8 8zm-88-24c0-4.800781 3.199219-8 8-8s8-3.199219 8-8c0-13.601562 10.398438-24 24-24s24 10.398438 24 24c0 4.800781 3.199219 8 8 8s8 3.199219 8 8v8h-80zm0 0"/><path d="m192 416h16v16h-16zm0 0"/><path d="m288 416h16v16h-16zm0 0"/><path d="m472 368h-64c-4.800781 0-8 3.199219-8 8v88h-32v-56c0-4.800781-3.199219-8-8-8h-24v-8c0-4.800781-3.199219-8-8-8h-8v-168c0-4.800781-3.199219-8-8-8h-8v-24c0-4.800781-3.199219-8-8-8h-16v-48c0-4.800781-3.199219-8-8-8v-24c0-.800781 0-1.601562 0-2.398438l-5.601562-16c-1.597657-4.800781-3.199219-10.402343-4.796876-16l-5.601562-22.402343v-31.199219c0-4.800781-3.199219-8-8-8s-8 3.199219-8 8v31.199219l-5.601562 23.199219c-1.597657 5.601562-3.199219 10.402343-4.796876 16l-5.601562 16v2.402343 24c-4.800781 0-8 3.199219-8 8v48h-16c-4.800781 0-8 3.199219-8 8v24h-8c-4.800781 0-8 3.199219-8 8v168h-8c-4.800781 0-8 3.199219-8 8v8h-24c-4.800781 0-8 3.199219-8 8v56h-16v-120.800781c0-.800781 0-1.601562-.800781-2.398438 0 0 0 0 0-.800781s-.800781-.800781-.800781-1.601562l-24-32c-3.199219-3.199219-8-4-12-.800781-.796876 0-.796876.800781-.796876.800781l-9.601562 12.800781v-40c0-.800781 0-1.601562-.800781-2.398438 0 0 0 0 0-.800781s-.800781-.800781-.800781-1.601562l-24-32c-3.199219-3.199219-8-4-12-.800781-.796876 0-.796876.800781-.796876.800781l-24 32c0 .800781-.800781.800781-.800781 1.601562v.800781c-.800781 0-.800781 1.597657-.800781 2.398438v192c0 4.800781 3.199219 8 8 8h464c4.800781 0 8-3.199219 8-8v-96c0-4.800781-3.199219-8-8-8zm-440-106.398438 8 10.398438h-16zm16 82.398438v120h-32v-176h32zm32-18.398438 8 10.398438h-16zm16 138.398438h-32v-112h32zm64 0h-16v-48h16zm64 0h-16v-16h-16v16h-16v-64h48zm0-104v24h-32v-160h32zm0-152h-16v-16h16zm20.800781-125.601562c.800781-3.199219 2.398438-6.398438 3.199219-10.398438.800781 3.199219 1.601562 6.398438 3.199219 10.398438l1.601562 5.601562h-9.601562zm-4.800781 21.601562h16v16h-16zm16 288v72h-16v-96h16zm8-216c-4.800781 0-8 3.199219-8 8v168h-16v-168c0-4.800781-3.199219-8-8-8v-40h32zm8 16h16v16h-16zm0 168v-136h32v160h-32zm48 48v56h-16v-16h-16v16h-16v-64h48zm32 56h-16v-48h16zm112 0h-48v-80h48zm0 0"/><path d="m432 400h16v16h-16zm0 0"/><path d="m432 432h16v16h-16zm0 0"/></svg>